<svg xmlns="http://www.w3.org/2000/svg" viewBox="0 0 108 108" width="108" height="108">
  <style>
    path { fill: #3b3b3b; }
    @media (prefers-color-scheme: dark) {
      path { fill: #ffffff; }
    }
  </style>
  <path d="m 60.310755,52.337239 v 34.0853 C 60.310755,86.742209 60.052965,87 59.733294,87 h -4.41856 c -3.676118,0 -6.656198,-2.980078 -6.656198,-6.6562 V 63.984302 Z" />
  <path d="m 83.862668,21.881651 c 0,6.001406 -4.867123,10.868524 -10.868533,10.868524 h -12.68338 v 5.336306 L 48.658537,49.738695 V 32.750175 H 25.01898 c -0.242322,0 -0.464026,-0.09796 -0.623854,-0.257794 C 24.235293,32.332553 24.137332,32.110852 24.137332,31.868524 24.137332,25.867121 29.004453,21 35.005856,21 h 47.980311 c 0.242328,0 0.464032,0.09796 0.623861,0.257794 0.154678,0.159828 0.252641,0.381532 0.25264,0.623857 z" />
</svg>
