<?xml version="1.0" encoding="UTF-8" standalone="no"?>
<!DOCTYPE svg PUBLIC "-//W3C//DTD SVG 1.1//EN" "http://www.w3.org/Graphics/SVG/1.1/DTD/svg11.dtd">
<svg width="100%" height="100%" viewBox="0 0 1016 638" version="1.1" xmlns="http://www.w3.org/2000/svg" xmlns:xlink="http://www.w3.org/1999/xlink" xml:space="preserve" xmlns:serif="http://www.serif.com/" style="fill-rule:evenodd;clip-rule:evenodd;stroke-linecap:round;stroke-miterlimit:10;">
    <g id="Working-layer" serif:id="Working layer">
        <g id="background-color" serif:id="background color">
            <path d="M0,165.905L0,47.244C-0,34.714 4.977,22.697 13.837,13.837C22.697,4.977 34.714,-0 47.244,-0L968.504,0C981.034,-0 993.051,4.977 1001.911,13.837C1010.771,22.697 1015.748,34.714 1015.748,47.244L1015.748,85.3L691.469,85.3C678.8,85.3 666.3,88.201 654.926,93.779L525.161,157.426C513.788,163.005 501.287,165.905 488.619,165.905L0,165.905Z" style="fill:rgb(242,242,242);"/>
            <path d="M0,132.047L496.301,132.047C503.979,132.047 511.62,130.981 519.005,128.88C548.974,120.356 631.114,96.991 661.083,88.466C668.468,86.366 676.109,85.3 683.787,85.3L1015.748,85.3L1015.748,590.551C1015.748,603.081 1010.771,615.098 1001.911,623.958C993.051,632.818 981.034,637.795 968.504,637.795L47.244,637.795C34.714,637.795 22.697,632.818 13.837,623.958C4.977,615.098 0,603.081 -0,590.551L0,132.047Z" style="fill:rgb(75,111,155);"/>
        </g>
        <g id="circuit-texture" serif:id="circuit texture" transform="matrix(-1,0,0,1,1307.522466,0)">
            <g transform="matrix(-1,0,0,1,1621.093441,126.560448)">
                <g transform="matrix(1,-0,-0,1,313.570976,-126.560448)">
                    <path d="M419.778,454.464C422.121,453.051 425.171,453.806 426.585,456.149C427.998,458.493 427.243,461.543 424.899,462.956C422.556,464.369 419.506,463.614 418.093,461.271C416.679,458.927 417.435,455.877 419.778,454.464Z" style="fill:none;stroke:rgb(242,242,242);stroke-width:2.92px;"/>
                    <path d="M6.652,498.259L356.763,498.259L418.093,461.271" style="fill:none;stroke:rgb(242,242,242);stroke-width:2.92px;stroke-linejoin:round;stroke-miterlimit:1.5;"/>
                </g>
                <g transform="matrix(0,-1,1,0,-63.770532,691.694164)">
                    <g transform="matrix(1,0,0,1,0,7)">
                        <path d="M316.166,377.809C315.73,377.106 315.499,376.296 315.499,375.469C315.499,373.605 315.499,370.342 315.499,370.342L324.492,370.342L324.492,375.469C324.492,376.296 324.261,377.106 323.826,377.809C322.574,379.83 319.996,383.993 319.996,383.993C319.996,383.993 317.417,379.83 316.166,377.809Z" style="fill:rgb(242,242,242);"/>
                        <path d="M316.166,377.809C315.73,377.106 315.499,376.296 315.499,375.469L315.499,370.342L324.492,370.342L324.492,375.469C324.492,376.296 324.261,377.106 323.826,377.809L319.996,383.993L316.166,377.809ZM318.745,376.212L319.996,378.23L321.246,376.212C321.384,375.988 321.458,375.731 321.458,375.469L321.458,373.376L318.534,373.376L318.534,375.469C318.534,375.731 318.607,375.988 318.745,376.212Z" style="fill:rgb(242,242,242);"/>
                    </g>
                </g>
            </g>
            <g transform="matrix(-1,0,0,1,1621.093441,147.766165)">
                <g transform="matrix(1,-0,-0,1,313.570976,-147.766165)">
                    <circle cx="549.954" cy="461.271" r="4.958" style="fill:none;stroke:rgb(242,242,242);stroke-width:2.92px;"/>
                    <path d="M6.652,519.465L368.74,519.465L478.779,461.271L544.996,461.271" style="fill:none;stroke:rgb(242,242,242);stroke-width:2.92px;stroke-linejoin:round;stroke-miterlimit:1.5;"/>
                </g>
                <g transform="matrix(0,-1,1,0,-63.770532,691.694164)">
                    <g transform="matrix(1,0,0,1,0,7)">
                        <path d="M316.166,377.809C315.73,377.106 315.499,376.296 315.499,375.469C315.499,373.605 315.499,370.342 315.499,370.342L324.492,370.342L324.492,375.469C324.492,376.296 324.261,377.106 323.826,377.809C322.574,379.83 319.996,383.993 319.996,383.993C319.996,383.993 317.417,379.83 316.166,377.809Z" style="fill:rgb(242,242,242);"/>
                        <path d="M316.166,377.809C315.73,377.106 315.499,376.296 315.499,375.469L315.499,370.342L324.492,370.342L324.492,375.469C324.492,376.296 324.261,377.106 323.826,377.809L319.996,383.993L316.166,377.809ZM318.745,376.212L319.996,378.23L321.246,376.212C321.384,375.988 321.458,375.731 321.458,375.469L321.458,373.376L318.534,373.376L318.534,375.469C318.534,375.731 318.607,375.988 318.745,376.212Z" style="fill:rgb(242,242,242);"/>
                    </g>
                </g>
            </g>
            <g transform="matrix(-1,0,0,1,1621.093441,168.971881)">
                <g transform="matrix(1,-0,-0,1,313.570976,-168.971881)">
                    <path d="M468.599,491.485C470.968,490.115 474.003,490.926 475.373,493.295C476.743,495.665 475.931,498.7 473.562,500.07C471.193,501.439 468.157,500.628 466.788,498.259C465.418,495.89 466.23,492.854 468.599,491.485Z" style="fill:none;stroke:rgb(242,242,242);stroke-width:2.92px;"/>
                    <path d="M6.652,540.67L393.428,540.67L466.788,498.259" style="fill:none;stroke:rgb(242,242,242);stroke-width:2.92px;stroke-linejoin:round;stroke-miterlimit:1.5;"/>
                </g>
                <g transform="matrix(0,-1,1,0,-63.770532,691.694164)">
                    <g transform="matrix(1,0,0,1,0,7)">
                        <path d="M316.166,377.809C315.73,377.106 315.499,376.296 315.499,375.469C315.499,373.605 315.499,370.342 315.499,370.342L324.492,370.342L324.492,375.469C324.492,376.296 324.261,377.106 323.826,377.809C322.574,379.83 319.996,383.993 319.996,383.993C319.996,383.993 317.417,379.83 316.166,377.809Z" style="fill:rgb(242,242,242);"/>
                        <path d="M316.166,377.809C315.73,377.106 315.499,376.296 315.499,375.469L315.499,370.342L324.492,370.342L324.492,375.469C324.492,376.296 324.261,377.106 323.826,377.809L319.996,383.993L316.166,377.809ZM318.745,376.212L319.996,378.23L321.246,376.212C321.384,375.988 321.458,375.731 321.458,375.469L321.458,373.376L318.534,373.376L318.534,375.469C318.534,375.731 318.607,375.988 318.745,376.212Z" style="fill:rgb(242,242,242);"/>
                    </g>
                </g>
            </g>
            <g transform="matrix(-1,0,0,1,1621.093441,190.177597)">
                <g transform="matrix(1,-0,-0,1,313.570976,-190.177597)">
                    <circle cx="597.09" cy="502.403" r="4.958" style="fill:none;stroke:rgb(242,242,242);stroke-width:2.92px;"/>
                    <path d="M6.652,561.876L419.527,561.876L528.156,502.403L592.132,502.403" style="fill:none;stroke:rgb(242,242,242);stroke-width:2.92px;stroke-linejoin:round;stroke-miterlimit:1.5;"/>
                </g>
                <g transform="matrix(0,-1,1,0,-63.770532,691.694164)">
                    <g transform="matrix(1,0,0,1,0,7)">
                        <path d="M316.166,377.809C315.73,377.106 315.499,376.296 315.499,375.469C315.499,373.605 315.499,370.342 315.499,370.342L324.492,370.342L324.492,375.469C324.492,376.296 324.261,377.106 323.826,377.809C322.574,379.83 319.996,383.993 319.996,383.993C319.996,383.993 317.417,379.83 316.166,377.809Z" style="fill:rgb(242,242,242);"/>
                        <path d="M316.166,377.809C315.73,377.106 315.499,376.296 315.499,375.469L315.499,370.342L324.492,370.342L324.492,375.469C324.492,376.296 324.261,377.106 323.826,377.809L319.996,383.993L316.166,377.809ZM318.745,376.212L319.996,378.23L321.246,376.212C321.384,375.988 321.458,375.731 321.458,375.469L321.458,373.376L318.534,373.376L318.534,375.469C318.534,375.731 318.607,375.988 318.745,376.212Z" style="fill:rgb(242,242,242);"/>
                    </g>
                </g>
            </g>
            <g transform="matrix(-1,0,0,1,1621.093441,211.383313)">
                <g transform="matrix(1,-0,-0,1,313.570976,-211.383313)">
                    <path d="M673.354,559.454C675.578,557.859 678.678,558.37 680.273,560.594C681.868,562.818 681.357,565.918 679.133,567.512C676.909,569.107 673.809,568.596 672.214,566.372C670.619,564.148 671.13,561.048 673.354,559.454Z" style="fill:none;stroke:rgb(242,242,242);stroke-width:2.92px;"/>
                    <path d="M6.652,583.082L287.636,581.477L320.069,603.003L621.129,603.003L672.214,566.372" style="fill:none;stroke:rgb(242,242,242);stroke-width:2.92px;stroke-linejoin:round;stroke-miterlimit:1.5;"/>
                </g>
                <g transform="matrix(0,-1,1,0,-63.770532,691.694164)">
                    <g transform="matrix(1,0,0,1,0,7)">
                        <path d="M316.166,377.809C315.73,377.106 315.499,376.296 315.499,375.469C315.499,373.605 315.499,370.342 315.499,370.342L324.492,370.342L324.492,375.469C324.492,376.296 324.261,377.106 323.826,377.809C322.574,379.83 319.996,383.993 319.996,383.993C319.996,383.993 317.417,379.83 316.166,377.809Z" style="fill:rgb(242,242,242);"/>
                        <path d="M316.166,377.809C315.73,377.106 315.499,376.296 315.499,375.469L315.499,370.342L324.492,370.342L324.492,375.469C324.492,376.296 324.261,377.106 323.826,377.809L319.996,383.993L316.166,377.809ZM318.745,376.212L319.996,378.23L321.246,376.212C321.384,375.988 321.458,375.731 321.458,375.469L321.458,373.376L318.534,373.376L318.534,375.469C318.534,375.731 318.607,375.988 318.745,376.212Z" style="fill:rgb(242,242,242);"/>
                    </g>
                </g>
            </g>
        </g>
        <g id="header">
            <g transform="matrix(0.437298,0,0,0.437298,33.148714,3.059644)">
                <path id="button" d="M156.2,140.8L156.2,206.7C156.2,207.3 155.7,207.8 155.1,207.8L146.6,207.8C139.5,207.8 133.7,202 133.7,194.9L133.7,163.3L156.2,140.8Z" style="fill:rgb(59,59,59);fill-rule:nonzero;"/>
                <path id="upper_00000135659776432128423260000004837408769869680262_" d="M156.1,102.9L156.1,113.2L133.5,135.8L133.5,102.9L156.1,102.9Z" style="fill:rgb(59,59,59);fill-rule:nonzero;"/>
                <path id="top" d="M201.7,81.9C201.7,93.5 192.3,102.9 180.7,102.9L88,102.9C87.6,102.9 87.1,102.7 86.8,102.4C86.5,102 86.3,101.7 86.3,101.2C86.3,89.6 95.7,80.2 107.3,80.2L200.1,80.2C200.5,80.2 201,80.4 201.3,80.7C201.6,81 201.7,81.4 201.7,81.9Z" style="fill:rgb(59,59,59);fill-rule:nonzero;"/>
            </g>
        </g>
    </g>
</svg>
