<?xml version="1.0" encoding="UTF-8" standalone="no"?>
<!DOCTYPE svg PUBLIC "-//W3C//DTD SVG 1.1//EN" "http://www.w3.org/Graphics/SVG/1.1/DTD/svg11.dtd">
<svg width="100%" height="100%" viewBox="0 0 1016 638" version="1.1" xmlns="http://www.w3.org/2000/svg" xmlns:xlink="http://www.w3.org/1999/xlink" xml:space="preserve" xmlns:serif="http://www.serif.com/" style="fill-rule:evenodd;clip-rule:evenodd;stroke-linecap:round;stroke-miterlimit:10;">
    <g id="Working-layer" serif:id="Working layer">
        <g id="background-color" serif:id="background color">
            <path d="M0,165.905L0,47.244C-0,34.714 4.977,22.697 13.837,13.837C22.697,4.977 34.714,-0 47.244,-0L968.504,0C981.034,-0 993.051,4.977 1001.911,13.837C1010.771,22.697 1015.748,34.714 1015.748,47.244L1015.748,85.3L691.469,85.3C678.8,85.3 666.3,88.201 654.926,93.779L525.161,157.426C513.788,163.005 501.287,165.905 488.619,165.905L0,165.905Z" style="fill:rgb(242,242,242);"/>
            <path d="M0,132.047L496.301,132.047C503.979,132.047 511.62,130.981 519.005,128.88C548.974,120.356 631.114,96.991 661.083,88.466C668.468,86.366 676.109,85.3 683.787,85.3L1015.748,85.3L1015.748,590.551C1015.748,603.081 1010.771,615.098 1001.911,623.958C993.051,632.818 981.034,637.795 968.504,637.795L47.244,637.795C34.714,637.795 22.697,632.818 13.837,623.958C4.977,615.098 0,603.081 -0,590.551L0,132.047Z" style="fill:rgb(75,111,155);"/>
        </g>
        <g id="circuit-texture" serif:id="circuit texture" transform="matrix(-1,0,0,1,1307.522466,0)">
            <g transform="matrix(-1,0,0,1,1621.093441,126.560448)">
                <g transform="matrix(1,-0,-0,1,313.570976,-126.560448)">
                    <path d="M419.778,454.464C422.121,453.051 425.171,453.806 426.585,456.149C427.998,458.493 427.243,461.543 424.899,462.956C422.556,464.369 419.506,463.614 418.093,461.271C416.679,458.927 417.435,455.877 419.778,454.464Z" style="fill:none;stroke:rgb(242,242,242);stroke-width:2.92px;"/>
                    <path d="M6.652,498.259L356.763,498.259L418.093,461.271" style="fill:none;stroke:rgb(242,242,242);stroke-width:2.92px;stroke-linejoin:round;stroke-miterlimit:1.5;"/>
                </g>
                <g transform="matrix(0,-1,1,0,-63.770532,691.694164)">
                    <g transform="matrix(1,0,0,1,0,7)">
                        <path d="M316.166,377.809C315.73,377.106 315.499,376.296 315.499,375.469C315.499,373.605 315.499,370.342 315.499,370.342L324.492,370.342L324.492,375.469C324.492,376.296 324.261,377.106 323.826,377.809C322.574,379.83 319.996,383.993 319.996,383.993C319.996,383.993 317.417,379.83 316.166,377.809Z" style="fill:rgb(242,242,242);"/>
                        <path d="M316.166,377.809C315.73,377.106 315.499,376.296 315.499,375.469L315.499,370.342L324.492,370.342L324.492,375.469C324.492,376.296 324.261,377.106 323.826,377.809L319.996,383.993L316.166,377.809ZM318.745,376.212L319.996,378.23L321.246,376.212C321.384,375.988 321.458,375.731 321.458,375.469L321.458,373.376L318.534,373.376L318.534,375.469C318.534,375.731 318.607,375.988 318.745,376.212Z" style="fill:rgb(242,242,242);"/>
                    </g>
                </g>
            </g>
            <g transform="matrix(-1,0,0,1,1621.093441,147.766165)">
                <g transform="matrix(1,-0,-0,1,313.570976,-147.766165)">
                    <circle cx="549.954" cy="461.271" r="4.958" style="fill:none;stroke:rgb(242,242,242);stroke-width:2.92px;"/>
                    <path d="M6.652,519.465L368.74,519.465L478.779,461.271L544.996,461.271" style="fill:none;stroke:rgb(242,242,242);stroke-width:2.92px;stroke-linejoin:round;stroke-miterlimit:1.5;"/>
                </g>
                <g transform="matrix(0,-1,1,0,-63.770532,691.694164)">
                    <g transform="matrix(1,0,0,1,0,7)">
                        <path d="M316.166,377.809C315.73,377.106 315.499,376.296 315.499,375.469C315.499,373.605 315.499,370.342 315.499,370.342L324.492,370.342L324.492,375.469C324.492,376.296 324.261,377.106 323.826,377.809C322.574,379.83 319.996,383.993 319.996,383.993C319.996,383.993 317.417,379.83 316.166,377.809Z" style="fill:rgb(242,242,242);"/>
                        <path d="M316.166,377.809C315.73,377.106 315.499,376.296 315.499,375.469L315.499,370.342L324.492,370.342L324.492,375.469C324.492,376.296 324.261,377.106 323.826,377.809L319.996,383.993L316.166,377.809ZM318.745,376.212L319.996,378.23L321.246,376.212C321.384,375.988 321.458,375.731 321.458,375.469L321.458,373.376L318.534,373.376L318.534,375.469C318.534,375.731 318.607,375.988 318.745,376.212Z" style="fill:rgb(242,242,242);"/>
                    </g>
                </g>
            </g>
            <g transform="matrix(-1,0,0,1,1621.093441,168.971881)">
                <g transform="matrix(1,-0,-0,1,313.570976,-168.971881)">
                    <path d="M468.599,491.485C470.968,490.115 474.003,490.926 475.373,493.295C476.743,495.665 475.931,498.7 473.562,500.07C471.193,501.439 468.157,500.628 466.788,498.259C465.418,495.89 466.23,492.854 468.599,491.485Z" style="fill:none;stroke:rgb(242,242,242);stroke-width:2.92px;"/>
                    <path d="M6.652,540.67L393.428,540.67L466.788,498.259" style="fill:none;stroke:rgb(242,242,242);stroke-width:2.92px;stroke-linejoin:round;stroke-miterlimit:1.5;"/>
                </g>
                <g transform="matrix(0,-1,1,0,-63.770532,691.694164)">
                    <g transform="matrix(1,0,0,1,0,7)">
                        <path d="M316.166,377.809C315.73,377.106 315.499,376.296 315.499,375.469C315.499,373.605 315.499,370.342 315.499,370.342L324.492,370.342L324.492,375.469C324.492,376.296 324.261,377.106 323.826,377.809C322.574,379.83 319.996,383.993 319.996,383.993C319.996,383.993 317.417,379.83 316.166,377.809Z" style="fill:rgb(242,242,242);"/>
                        <path d="M316.166,377.809C315.73,377.106 315.499,376.296 315.499,375.469L315.499,370.342L324.492,370.342L324.492,375.469C324.492,376.296 324.261,377.106 323.826,377.809L319.996,383.993L316.166,377.809ZM318.745,376.212L319.996,378.23L321.246,376.212C321.384,375.988 321.458,375.731 321.458,375.469L321.458,373.376L318.534,373.376L318.534,375.469C318.534,375.731 318.607,375.988 318.745,376.212Z" style="fill:rgb(242,242,242);"/>
                    </g>
                </g>
            </g>
            <g transform="matrix(-1,0,0,1,1621.093441,190.177597)">
                <g transform="matrix(1,-0,-0,1,313.570976,-190.177597)">
                    <circle cx="597.09" cy="502.403" r="4.958" style="fill:none;stroke:rgb(242,242,242);stroke-width:2.92px;"/>
                    <path d="M6.652,561.876L419.527,561.876L528.156,502.403L592.132,502.403" style="fill:none;stroke:rgb(242,242,242);stroke-width:2.92px;stroke-linejoin:round;stroke-miterlimit:1.5;"/>
                </g>
                <g transform="matrix(0,-1,1,0,-63.770532,691.694164)">
                    <g transform="matrix(1,0,0,1,0,7)">
                        <path d="M316.166,377.809C315.73,377.106 315.499,376.296 315.499,375.469C315.499,373.605 315.499,370.342 315.499,370.342L324.492,370.342L324.492,375.469C324.492,376.296 324.261,377.106 323.826,377.809C322.574,379.83 319.996,383.993 319.996,383.993C319.996,383.993 317.417,379.83 316.166,377.809Z" style="fill:rgb(242,242,242);"/>
                        <path d="M316.166,377.809C315.73,377.106 315.499,376.296 315.499,375.469L315.499,370.342L324.492,370.342L324.492,375.469C324.492,376.296 324.261,377.106 323.826,377.809L319.996,383.993L316.166,377.809ZM318.745,376.212L319.996,378.23L321.246,376.212C321.384,375.988 321.458,375.731 321.458,375.469L321.458,373.376L318.534,373.376L318.534,375.469C318.534,375.731 318.607,375.988 318.745,376.212Z" style="fill:rgb(242,242,242);"/>
                    </g>
                </g>
            </g>
            <g transform="matrix(-1,0,0,1,1621.093441,211.383313)">
                <g transform="matrix(1,-0,-0,1,313.570976,-211.383313)">
                    <path d="M673.354,559.454C675.578,557.859 678.678,558.37 680.273,560.594C681.868,562.818 681.357,565.918 679.133,567.512C676.909,569.107 673.809,568.596 672.214,566.372C670.619,564.148 671.13,561.048 673.354,559.454Z" style="fill:none;stroke:rgb(242,242,242);stroke-width:2.92px;"/>
                    <path d="M6.652,583.082L287.636,581.477L320.069,603.003L621.129,603.003L672.214,566.372" style="fill:none;stroke:rgb(242,242,242);stroke-width:2.92px;stroke-linejoin:round;stroke-miterlimit:1.5;"/>
                </g>
                <g transform="matrix(0,-1,1,0,-63.770532,691.694164)">
                    <g transform="matrix(1,0,0,1,0,7)">
                        <path d="M316.166,377.809C315.73,377.106 315.499,376.296 315.499,375.469C315.499,373.605 315.499,370.342 315.499,370.342L324.492,370.342L324.492,375.469C324.492,376.296 324.261,377.106 323.826,377.809C322.574,379.83 319.996,383.993 319.996,383.993C319.996,383.993 317.417,379.83 316.166,377.809Z" style="fill:rgb(242,242,242);"/>
                        <path d="M316.166,377.809C315.73,377.106 315.499,376.296 315.499,375.469L315.499,370.342L324.492,370.342L324.492,375.469C324.492,376.296 324.261,377.106 323.826,377.809L319.996,383.993L316.166,377.809ZM318.745,376.212L319.996,378.23L321.246,376.212C321.384,375.988 321.458,375.731 321.458,375.469L321.458,373.376L318.534,373.376L318.534,375.469C318.534,375.731 318.607,375.988 318.745,376.212Z" style="fill:rgb(242,242,242);"/>
                    </g>
                </g>
            </g>
        </g>
        <g id="header">
            <g transform="matrix(0.437298,0,0,0.437298,33.148714,3.059644)">
                <path id="button" d="M156.2,140.8L156.2,206.7C156.2,207.3 155.7,207.8 155.1,207.8L146.6,207.8C139.5,207.8 133.7,202 133.7,194.9L133.7,163.3L156.2,140.8Z" style="fill:rgb(59,59,59);fill-rule:nonzero;"/>
                <path id="upper_00000135659776432128423260000004837408769869680262_" d="M156.1,102.9L156.1,113.2L133.5,135.8L133.5,102.9L156.1,102.9Z" style="fill:rgb(59,59,59);fill-rule:nonzero;"/>
                <path id="top" d="M201.7,81.9C201.7,93.5 192.3,102.9 180.7,102.9L88,102.9C87.6,102.9 87.1,102.7 86.8,102.4C86.5,102 86.3,101.7 86.3,101.2C86.3,89.6 95.7,80.2 107.3,80.2L200.1,80.2C200.5,80.2 201,80.4 201.3,80.7C201.6,81 201.7,81.4 201.7,81.9Z" style="fill:rgb(59,59,59);fill-rule:nonzero;"/>
            </g>
        </g>
        <g id="example-data" serif:id="example data">
            <g id="Layer1">
                <g transform="matrix(1.560582,0,0,1.560582,474.046332,-187.423403)">
                    <circle cx="195.433" cy="351.773" r="121.103" style="fill:rgb(191,191,191);"/>
                </g>
                <g transform="matrix(1,0,0,1,-54.408337,103.615572)">
                    <g transform="matrix(200,0,0,200,734.743166,327.980534)">
                        <path d="M0.041,-0.787L0.333,-0.787L0.333,-0.687L0.041,-0.687L0.041,-0.787ZM0.048,-0.498L0.312,-0.498L0.312,-0.399L0.048,-0.399L0.048,-0.498ZM0.035,-0.118C0.074,-0.126 0.119,-0.137 0.172,-0.151C0.224,-0.165 0.277,-0.18 0.33,-0.195L0.344,-0.098C0.295,-0.083 0.245,-0.069 0.195,-0.054C0.144,-0.04 0.098,-0.027 0.056,-0.015L0.035,-0.118ZM0.138,-0.745L0.235,-0.745L0.235,-0.129L0.138,-0.112L0.138,-0.745ZM0.387,-0.805L0.484,-0.805L0.484,-0.648L0.825,-0.648L0.825,-0.805L0.927,-0.805L0.927,-0.554L0.387,-0.554L0.387,-0.805ZM0.602,-0.847L0.701,-0.847L0.701,-0.594L0.602,-0.594L0.602,-0.847ZM0.348,-0.495L0.961,-0.495L0.961,-0.399L0.348,-0.399L0.348,-0.495ZM0.601,-0.447L0.712,-0.434C0.703,-0.405 0.694,-0.377 0.684,-0.349C0.675,-0.32 0.666,-0.296 0.659,-0.276L0.57,-0.29C0.577,-0.313 0.583,-0.339 0.589,-0.368C0.594,-0.397 0.598,-0.424 0.601,-0.447ZM0.374,-0.325L0.883,-0.325L0.883,-0.234L0.471,-0.234L0.471,0.087L0.374,0.087L0.374,-0.325ZM0.849,-0.325L0.946,-0.325L0.946,-0.013C0.946,0.007 0.944,0.024 0.94,0.037C0.936,0.05 0.928,0.061 0.915,0.07C0.903,0.078 0.889,0.083 0.874,0.086C0.859,0.088 0.84,0.089 0.819,0.089C0.817,0.075 0.813,0.059 0.806,0.041C0.799,0.023 0.792,0.008 0.785,-0.005C0.797,-0.004 0.808,-0.004 0.818,-0.004C0.827,-0.004 0.834,-0.004 0.838,-0.005C0.845,-0.005 0.849,-0.009 0.849,-0.016L0.849,-0.325ZM0.537,-0.286L0.623,-0.286L0.623,0.079L0.537,0.079L0.537,-0.286ZM0.692,-0.286L0.779,-0.286L0.779,0.079L0.692,0.079L0.692,-0.286Z" style="fill:rgb(128,128,128);fill-rule:nonzero;"/>
                    </g>
                    <g transform="matrix(200,0,0,200,934.743166,327.980534)">
                    </g>
                </g>
            </g>
            <g id="example-text" serif:id="example text">
                <g id="essential-data" serif:id="essential data" transform="matrix(1,0,0,1,-128.765713,-9.201816)">
                    <g transform="matrix(58.333333,0,0,58.333333,203.015897,231.050364)">
                        <path d="M0.043,-0.781L0.332,-0.781L0.332,-0.693L0.043,-0.693L0.043,-0.781ZM0.051,-0.492L0.311,-0.492L0.311,-0.405L0.051,-0.405L0.051,-0.492ZM0.038,-0.111C0.076,-0.119 0.121,-0.13 0.173,-0.145C0.225,-0.16 0.278,-0.175 0.331,-0.19L0.343,-0.104C0.294,-0.089 0.244,-0.075 0.194,-0.06C0.144,-0.045 0.098,-0.032 0.057,-0.02L0.038,-0.111ZM0.144,-0.743L0.231,-0.743L0.231,-0.126L0.144,-0.11L0.144,-0.743ZM0.392,-0.802L0.478,-0.802L0.478,-0.642L0.835,-0.642L0.835,-0.802L0.925,-0.802L0.925,-0.558L0.392,-0.558L0.392,-0.802ZM0.609,-0.844L0.697,-0.844L0.697,-0.593L0.609,-0.593L0.609,-0.844ZM0.35,-0.491L0.959,-0.491L0.959,-0.406L0.35,-0.406L0.35,-0.491ZM0.607,-0.449L0.705,-0.437C0.696,-0.409 0.687,-0.381 0.678,-0.352C0.669,-0.324 0.66,-0.3 0.652,-0.28L0.574,-0.293C0.581,-0.315 0.587,-0.341 0.594,-0.37C0.6,-0.4 0.604,-0.426 0.607,-0.449ZM0.381,-0.324L0.886,-0.324L0.886,-0.243L0.466,-0.243L0.466,0.084L0.381,0.084L0.381,-0.324ZM0.856,-0.324L0.942,-0.324L0.942,-0.006C0.942,0.012 0.94,0.027 0.936,0.04C0.932,0.052 0.924,0.062 0.913,0.069C0.902,0.076 0.888,0.081 0.873,0.083C0.858,0.085 0.84,0.086 0.819,0.086C0.817,0.073 0.813,0.059 0.806,0.043C0.8,0.027 0.794,0.013 0.788,0.002C0.801,0.003 0.813,0.003 0.824,0.003L0.845,0.003C0.852,0.002 0.856,-0.002 0.856,-0.009L0.856,-0.324ZM0.542,-0.29L0.619,-0.29L0.619,0.077L0.542,0.077L0.542,-0.29ZM0.698,-0.29L0.775,-0.29L0.775,0.077L0.698,0.077L0.698,-0.29Z" style="fill:rgb(242,242,242);fill-rule:nonzero;"/>
                    </g>
                    <g transform="matrix(58.333333,0,0,58.333333,264.265897,231.050364)">
                        <path d="M0.268,-0.482L0.268,-0.344L0.734,-0.344L0.734,-0.482L0.268,-0.482ZM0.176,-0.566L0.831,-0.566L0.831,-0.26L0.176,-0.26L0.176,-0.566ZM0.068,-0.751L0.936,-0.751L0.936,-0.664L0.068,-0.664L0.068,-0.751ZM0.449,-0.845L0.545,-0.845L0.545,-0.522L0.449,-0.522L0.449,-0.845ZM0.559,-0.309L0.655,-0.309L0.655,-0.052C0.655,-0.037 0.658,-0.027 0.663,-0.022C0.669,-0.018 0.682,-0.016 0.702,-0.016L0.827,-0.016C0.84,-0.016 0.849,-0.019 0.856,-0.026C0.862,-0.033 0.866,-0.046 0.869,-0.067C0.872,-0.087 0.874,-0.118 0.875,-0.159C0.882,-0.154 0.89,-0.148 0.9,-0.144C0.911,-0.139 0.922,-0.134 0.933,-0.13C0.944,-0.126 0.954,-0.123 0.963,-0.121C0.96,-0.069 0.954,-0.029 0.945,-0.001C0.936,0.027 0.924,0.047 0.906,0.058C0.889,0.068 0.866,0.074 0.835,0.074L0.69,0.074C0.655,0.074 0.628,0.07 0.609,0.062C0.59,0.055 0.576,0.042 0.57,0.024C0.562,0.006 0.559,-0.019 0.559,-0.051L0.559,-0.309ZM0.325,-0.277L0.426,-0.277C0.421,-0.232 0.413,-0.19 0.402,-0.152C0.39,-0.115 0.372,-0.081 0.348,-0.051C0.324,-0.02 0.292,0.006 0.251,0.029C0.21,0.052 0.156,0.071 0.091,0.086C0.088,0.077 0.084,0.068 0.077,0.057C0.071,0.046 0.065,0.036 0.058,0.025C0.05,0.014 0.043,0.006 0.036,-0.001C0.094,-0.012 0.141,-0.027 0.177,-0.044C0.213,-0.061 0.241,-0.08 0.261,-0.103C0.281,-0.126 0.295,-0.151 0.304,-0.18C0.314,-0.21 0.32,-0.242 0.325,-0.277Z" style="fill:rgb(242,242,242);fill-rule:nonzero;"/>
                    </g>
                    <g transform="matrix(58.333333,0,0,58.333333,325.515897,231.050364)">
                        <path d="M0.5,-0.304C0.475,-0.304 0.454,-0.312 0.436,-0.329C0.419,-0.346 0.41,-0.367 0.41,-0.392C0.41,-0.417 0.419,-0.438 0.436,-0.455C0.454,-0.471 0.475,-0.479 0.5,-0.479C0.525,-0.479 0.546,-0.471 0.564,-0.455C0.581,-0.438 0.59,-0.417 0.59,-0.392C0.59,-0.367 0.581,-0.346 0.564,-0.329C0.546,-0.312 0.525,-0.304 0.5,-0.304Z" style="fill:rgb(242,242,242);fill-rule:nonzero;"/>
                    </g>
                    <g transform="matrix(58.333333,0,0,58.333333,386.765897,231.050364)">
                        <path d="M0.687,-0.504L0.792,-0.478C0.755,-0.369 0.705,-0.277 0.642,-0.203C0.579,-0.129 0.502,-0.069 0.412,-0.023C0.321,0.023 0.216,0.059 0.097,0.086C0.094,0.078 0.09,0.068 0.083,0.057C0.076,0.045 0.069,0.033 0.062,0.022C0.055,0.01 0.048,0 0.042,-0.008C0.157,-0.029 0.258,-0.059 0.344,-0.099C0.429,-0.138 0.501,-0.191 0.558,-0.257C0.615,-0.323 0.658,-0.405 0.687,-0.504ZM0.313,-0.498C0.343,-0.407 0.386,-0.329 0.442,-0.262C0.497,-0.195 0.567,-0.141 0.652,-0.1C0.737,-0.058 0.838,-0.028 0.956,-0.011C0.949,-0.004 0.941,0.006 0.933,0.017C0.925,0.028 0.918,0.04 0.911,0.051C0.904,0.062 0.899,0.073 0.894,0.082C0.803,0.066 0.721,0.043 0.65,0.012C0.579,-0.019 0.516,-0.057 0.462,-0.103C0.407,-0.148 0.361,-0.202 0.322,-0.264C0.283,-0.325 0.249,-0.395 0.222,-0.474L0.313,-0.498ZM0.062,-0.74L0.482,-0.74L0.482,-0.649L0.062,-0.649L0.062,-0.74ZM0.281,-0.844L0.374,-0.844L0.374,-0.527L0.281,-0.527L0.281,-0.844ZM0.632,-0.844L0.726,-0.844L0.726,-0.527L0.632,-0.527L0.632,-0.844ZM0.522,-0.741L0.942,-0.741L0.942,-0.649L0.522,-0.649L0.522,-0.741Z" style="fill:rgb(242,242,242);fill-rule:nonzero;"/>
                    </g>
                    <g transform="matrix(58.333333,0,0,58.333333,448.015897,231.050364)">
                        <path d="M0.048,-0.718L0.53,-0.718L0.53,-0.635L0.048,-0.635L0.048,-0.718ZM0.169,-0.556L0.416,-0.556L0.416,-0.483L0.169,-0.483L0.169,-0.556ZM0.169,-0.402L0.418,-0.402L0.418,-0.328L0.169,-0.328L0.169,-0.402ZM0.035,-0.241L0.535,-0.241L0.535,-0.158L0.035,-0.158L0.035,-0.241ZM0.127,-0.833L0.213,-0.833L0.213,-0.208L0.127,-0.208L0.127,-0.833ZM0.376,-0.833L0.463,-0.833L0.463,-0.208L0.376,-0.208L0.376,-0.833ZM0.169,-0.143L0.258,-0.117C0.242,-0.081 0.221,-0.046 0.195,-0.011C0.169,0.025 0.143,0.054 0.117,0.077C0.112,0.072 0.104,0.066 0.096,0.059C0.087,0.051 0.077,0.045 0.068,0.038C0.058,0.031 0.049,0.026 0.042,0.022C0.068,0.001 0.092,-0.024 0.115,-0.053C0.137,-0.082 0.155,-0.112 0.169,-0.143ZM0.309,-0.106L0.384,-0.141C0.401,-0.122 0.418,-0.1 0.435,-0.076C0.453,-0.052 0.466,-0.031 0.475,-0.013L0.396,0.027C0.388,0.009 0.376,-0.013 0.359,-0.038C0.342,-0.063 0.326,-0.086 0.309,-0.106ZM0.601,-0.51L0.965,-0.51L0.965,-0.423L0.601,-0.423L0.601,-0.51ZM0.779,-0.465L0.868,-0.465L0.868,0.084L0.779,0.084L0.779,-0.465ZM0.884,-0.845L0.96,-0.777C0.927,-0.762 0.891,-0.747 0.85,-0.733C0.809,-0.719 0.768,-0.707 0.725,-0.696C0.682,-0.684 0.639,-0.675 0.598,-0.666C0.595,-0.676 0.591,-0.688 0.586,-0.702C0.58,-0.716 0.574,-0.728 0.568,-0.738C0.606,-0.747 0.644,-0.757 0.683,-0.768C0.723,-0.779 0.76,-0.792 0.795,-0.805C0.83,-0.819 0.86,-0.832 0.884,-0.845ZM0.568,-0.738L0.655,-0.738L0.655,-0.383C0.655,-0.322 0.651,-0.263 0.644,-0.206C0.638,-0.149 0.624,-0.095 0.603,-0.044C0.582,0.008 0.55,0.057 0.508,0.102C0.5,0.092 0.49,0.081 0.477,0.07C0.464,0.059 0.452,0.049 0.441,0.041C0.478,-0 0.506,-0.044 0.524,-0.09C0.542,-0.136 0.554,-0.184 0.559,-0.233C0.565,-0.282 0.568,-0.333 0.568,-0.384L0.568,-0.738Z" style="fill:rgb(242,242,242);fill-rule:nonzero;"/>
                    </g>
                    <g transform="matrix(58.333333,0,0,58.333333,509.265897,231.050364)">
                        <path d="M0.245,-0.537L0.245,-0.43L0.767,-0.43L0.767,-0.537L0.245,-0.537ZM0.245,-0.722L0.245,-0.616L0.767,-0.616L0.767,-0.722L0.245,-0.722ZM0.151,-0.806L0.865,-0.806L0.865,-0.345L0.151,-0.345L0.151,-0.806ZM0.052,-0.033L0.95,-0.033L0.95,0.055L0.052,0.055L0.052,-0.033ZM0.12,-0.243L0.898,-0.243L0.898,-0.155L0.12,-0.155L0.12,-0.243ZM0.46,-0.753L0.55,-0.753L0.55,-0.363L0.556,-0.363L0.556,0.02L0.454,0.02L0.454,-0.363L0.46,-0.363L0.46,-0.753Z" style="fill:rgb(242,242,242);fill-rule:nonzero;"/>
                    </g>
                    <g transform="matrix(58.333333,0,0,58.333333,567.59923,231.050364)">
                    </g>
                    <g transform="matrix(41.666667,0,0,41.666667,203.015897,289.383697)">
                        <path d="M0.056,-0.44L0.34,-0.44L0.34,-0.368L0.056,-0.368L0.056,-0.44ZM0.186,-0.634L0.507,-0.634L0.507,-0.562L0.186,-0.562L0.186,-0.634ZM0.535,-0.588C0.557,-0.505 0.587,-0.428 0.626,-0.357C0.665,-0.286 0.712,-0.225 0.769,-0.172C0.826,-0.119 0.891,-0.079 0.965,-0.051C0.96,-0.046 0.954,-0.039 0.947,-0.032C0.94,-0.024 0.933,-0.016 0.927,-0.007C0.921,0.001 0.916,0.008 0.912,0.015C0.836,-0.018 0.769,-0.063 0.713,-0.12C0.655,-0.177 0.607,-0.244 0.568,-0.321C0.529,-0.397 0.497,-0.482 0.472,-0.574L0.535,-0.588ZM0.861,-0.562L0.93,-0.513C0.902,-0.487 0.872,-0.46 0.839,-0.432C0.806,-0.404 0.773,-0.377 0.741,-0.352C0.708,-0.326 0.677,-0.303 0.648,-0.284L0.595,-0.327C0.624,-0.347 0.654,-0.37 0.686,-0.398C0.719,-0.425 0.751,-0.452 0.781,-0.481C0.812,-0.51 0.839,-0.537 0.861,-0.562ZM0.463,-0.634L0.543,-0.634L0.543,-0.017C0.543,0.006 0.54,0.024 0.533,0.036C0.527,0.049 0.516,0.058 0.499,0.065C0.483,0.071 0.461,0.075 0.433,0.076C0.406,0.077 0.371,0.078 0.329,0.078C0.328,0.068 0.325,0.056 0.32,0.041C0.315,0.026 0.309,0.013 0.303,0.003C0.323,0.004 0.342,0.004 0.361,0.005C0.38,0.005 0.396,0.005 0.411,0.005L0.44,0.005C0.449,0.004 0.455,0.003 0.458,-0.001C0.461,-0.004 0.463,-0.009 0.463,-0.018L0.463,-0.634ZM0.277,-0.777L0.314,-0.838C0.345,-0.831 0.377,-0.822 0.412,-0.812C0.446,-0.803 0.48,-0.792 0.514,-0.78C0.548,-0.769 0.58,-0.757 0.61,-0.745C0.639,-0.733 0.665,-0.721 0.686,-0.71L0.648,-0.639C0.627,-0.65 0.602,-0.662 0.573,-0.675C0.543,-0.688 0.512,-0.7 0.479,-0.713C0.445,-0.726 0.411,-0.737 0.377,-0.749C0.342,-0.76 0.309,-0.769 0.277,-0.777ZM0.311,-0.44L0.327,-0.44L0.341,-0.443L0.39,-0.421C0.373,-0.353 0.349,-0.291 0.319,-0.235C0.289,-0.179 0.255,-0.13 0.216,-0.088C0.178,-0.045 0.137,-0.01 0.094,0.017C0.09,0.011 0.085,0.004 0.077,-0.003C0.071,-0.009 0.063,-0.017 0.056,-0.024C0.048,-0.03 0.041,-0.036 0.034,-0.04C0.077,-0.065 0.116,-0.096 0.153,-0.134C0.19,-0.171 0.222,-0.214 0.249,-0.264C0.276,-0.312 0.297,-0.366 0.311,-0.424L0.311,-0.44Z" style="fill:rgb(242,242,242);fill-rule:nonzero;"/>
                    </g>
                    <g transform="matrix(41.666667,0,0,41.666667,244.682563,289.383697)">
                        <path d="M0.069,-0.77L0.931,-0.77L0.931,-0.693L0.069,-0.693L0.069,-0.77ZM0.559,-0.478L0.615,-0.526C0.644,-0.507 0.675,-0.486 0.708,-0.464C0.741,-0.441 0.773,-0.418 0.804,-0.394C0.835,-0.37 0.865,-0.347 0.892,-0.324C0.918,-0.301 0.941,-0.28 0.96,-0.261L0.899,-0.203C0.881,-0.222 0.859,-0.244 0.833,-0.268C0.806,-0.291 0.778,-0.315 0.747,-0.34C0.716,-0.365 0.685,-0.389 0.652,-0.413C0.62,-0.436 0.589,-0.458 0.559,-0.478ZM0.541,-0.743L0.622,-0.714C0.585,-0.645 0.539,-0.578 0.486,-0.513C0.433,-0.448 0.373,-0.387 0.307,-0.332C0.242,-0.277 0.171,-0.229 0.095,-0.189C0.092,-0.196 0.087,-0.203 0.081,-0.211C0.074,-0.219 0.068,-0.227 0.061,-0.235C0.055,-0.243 0.049,-0.25 0.044,-0.255C0.099,-0.282 0.151,-0.314 0.201,-0.351C0.25,-0.387 0.296,-0.427 0.339,-0.47C0.382,-0.513 0.42,-0.557 0.455,-0.604C0.489,-0.65 0.518,-0.696 0.541,-0.743ZM0.459,-0.544L0.54,-0.624L0.54,0.078L0.459,0.078L0.459,-0.544Z" style="fill:rgb(242,242,242);fill-rule:nonzero;"/>
                    </g>
                    <g transform="matrix(41.666667,0,0,41.666667,286.34923,289.383697)">
                        <path d="M0.206,-0.823L0.272,-0.842C0.283,-0.821 0.293,-0.797 0.303,-0.772C0.313,-0.747 0.321,-0.726 0.327,-0.709L0.257,-0.686C0.253,-0.705 0.246,-0.727 0.236,-0.753C0.226,-0.778 0.216,-0.802 0.206,-0.823ZM0.044,-0.678L0.488,-0.678L0.488,-0.608L0.044,-0.608L0.044,-0.678ZM0.206,-0.475L0.398,-0.475L0.398,-0.405L0.206,-0.405L0.206,-0.475ZM0.372,-0.475L0.443,-0.475L0.443,-0.454C0.443,-0.449 0.443,-0.444 0.442,-0.44C0.441,-0.358 0.439,-0.289 0.437,-0.232C0.435,-0.174 0.433,-0.128 0.43,-0.092C0.427,-0.056 0.424,-0.028 0.42,-0.007C0.416,0.013 0.411,0.027 0.404,0.035C0.395,0.046 0.387,0.054 0.378,0.059C0.368,0.064 0.357,0.067 0.344,0.068C0.332,0.069 0.316,0.07 0.296,0.07C0.277,0.07 0.256,0.07 0.235,0.069C0.234,0.058 0.232,0.047 0.229,0.034C0.226,0.021 0.221,0.009 0.216,-0.001C0.237,0.001 0.256,0.002 0.273,0.003C0.29,0.003 0.302,0.003 0.31,0.003C0.317,0.003 0.323,0.002 0.328,0.001C0.333,-0.001 0.337,-0.005 0.34,-0.011C0.345,-0.017 0.349,-0.029 0.352,-0.046C0.354,-0.064 0.357,-0.09 0.36,-0.125C0.363,-0.16 0.365,-0.204 0.366,-0.259C0.368,-0.314 0.37,-0.38 0.372,-0.459L0.372,-0.475ZM0.589,-0.653L0.962,-0.653L0.962,-0.583L0.589,-0.583L0.589,-0.653ZM0.612,-0.841L0.689,-0.828C0.677,-0.765 0.662,-0.703 0.644,-0.642C0.626,-0.582 0.605,-0.526 0.582,-0.475C0.559,-0.423 0.532,-0.377 0.503,-0.338C0.499,-0.343 0.493,-0.349 0.486,-0.356C0.48,-0.363 0.472,-0.37 0.465,-0.378C0.457,-0.385 0.45,-0.39 0.445,-0.395C0.472,-0.43 0.497,-0.472 0.518,-0.519C0.539,-0.566 0.558,-0.617 0.574,-0.672C0.589,-0.727 0.602,-0.783 0.612,-0.841ZM0.818,-0.616L0.892,-0.607C0.875,-0.492 0.85,-0.392 0.817,-0.304C0.784,-0.218 0.74,-0.142 0.685,-0.079C0.63,-0.015 0.56,0.039 0.475,0.082C0.473,0.076 0.469,0.069 0.464,0.061C0.459,0.053 0.453,0.045 0.448,0.037C0.442,0.029 0.436,0.022 0.431,0.017C0.512,-0.021 0.578,-0.069 0.63,-0.127C0.681,-0.185 0.722,-0.255 0.752,-0.336C0.781,-0.417 0.803,-0.51 0.818,-0.616ZM0.619,-0.589C0.635,-0.496 0.658,-0.41 0.687,-0.331C0.716,-0.251 0.754,-0.181 0.8,-0.122C0.847,-0.064 0.904,-0.018 0.971,0.014C0.966,0.019 0.96,0.025 0.953,0.033C0.946,0.04 0.94,0.048 0.934,0.056C0.928,0.063 0.923,0.071 0.918,0.078C0.848,0.041 0.789,-0.009 0.742,-0.072C0.694,-0.136 0.655,-0.211 0.625,-0.296C0.595,-0.382 0.571,-0.476 0.554,-0.578L0.619,-0.589ZM0.162,-0.644L0.234,-0.644L0.234,-0.399C0.234,-0.344 0.231,-0.289 0.224,-0.234C0.216,-0.178 0.202,-0.124 0.18,-0.071C0.159,-0.018 0.126,0.032 0.081,0.079C0.074,0.071 0.066,0.062 0.055,0.053C0.044,0.045 0.034,0.037 0.025,0.03C0.066,-0.013 0.096,-0.059 0.116,-0.107C0.135,-0.156 0.148,-0.205 0.153,-0.255C0.159,-0.304 0.162,-0.353 0.162,-0.4L0.162,-0.644Z" style="fill:rgb(242,242,242);fill-rule:nonzero;"/>
                    </g>
                    <g transform="matrix(41.666667,0,0,41.666667,328.015897,289.383697)">
                        <path d="M0.057,-0.208L0.945,-0.208L0.945,-0.146L0.057,-0.146L0.057,-0.208ZM0.055,-0.459L0.944,-0.459L0.944,-0.4L0.055,-0.4L0.055,-0.459ZM0.059,-0.762L0.947,-0.762L0.947,-0.701L0.059,-0.701L0.059,-0.762ZM0.46,-0.279L0.536,-0.279L0.536,0.078L0.46,0.078L0.46,-0.279ZM0.462,-0.529L0.532,-0.529L0.532,-0.3L0.462,-0.3L0.462,-0.529ZM0.43,-0.182L0.485,-0.158C0.455,-0.125 0.418,-0.093 0.374,-0.064C0.33,-0.035 0.283,-0.009 0.233,0.013C0.183,0.036 0.133,0.054 0.084,0.067C0.079,0.058 0.071,0.047 0.062,0.035C0.053,0.022 0.045,0.012 0.038,0.005C0.087,-0.006 0.136,-0.02 0.185,-0.038C0.235,-0.056 0.281,-0.077 0.324,-0.102C0.367,-0.127 0.402,-0.153 0.43,-0.182ZM0.566,-0.181C0.593,-0.152 0.628,-0.126 0.671,-0.102C0.714,-0.078 0.76,-0.057 0.811,-0.04C0.862,-0.023 0.914,-0.009 0.965,-0C0.956,0.007 0.948,0.017 0.939,0.03C0.929,0.042 0.922,0.053 0.917,0.062C0.866,0.05 0.815,0.033 0.764,0.012C0.713,-0.009 0.665,-0.034 0.621,-0.063C0.577,-0.092 0.54,-0.123 0.511,-0.158L0.566,-0.181ZM0.21,-0.522L0.28,-0.522L0.28,-0.326L0.719,-0.326L0.719,-0.522L0.791,-0.522L0.791,-0.268L0.21,-0.268L0.21,-0.522ZM0.612,-0.674L0.66,-0.712C0.687,-0.7 0.716,-0.686 0.745,-0.668C0.773,-0.651 0.801,-0.634 0.827,-0.617C0.853,-0.6 0.875,-0.584 0.892,-0.57L0.843,-0.526C0.826,-0.541 0.805,-0.557 0.779,-0.575C0.753,-0.593 0.725,-0.611 0.696,-0.628C0.667,-0.645 0.639,-0.661 0.612,-0.674ZM0.433,-0.829L0.504,-0.845C0.514,-0.832 0.524,-0.816 0.533,-0.799C0.543,-0.782 0.55,-0.767 0.554,-0.754L0.479,-0.735C0.475,-0.748 0.469,-0.764 0.46,-0.781C0.451,-0.798 0.442,-0.814 0.433,-0.829ZM0.137,-0.536C0.135,-0.542 0.132,-0.551 0.128,-0.563C0.123,-0.575 0.119,-0.585 0.115,-0.592C0.125,-0.593 0.136,-0.596 0.147,-0.601C0.159,-0.605 0.172,-0.61 0.186,-0.617C0.197,-0.622 0.213,-0.63 0.236,-0.643C0.258,-0.656 0.283,-0.671 0.31,-0.689C0.337,-0.706 0.363,-0.725 0.387,-0.745L0.46,-0.722C0.416,-0.689 0.371,-0.659 0.324,-0.633C0.277,-0.606 0.232,-0.584 0.189,-0.566L0.189,-0.565C0.189,-0.565 0.186,-0.564 0.181,-0.562C0.176,-0.561 0.17,-0.558 0.163,-0.555C0.155,-0.553 0.149,-0.549 0.144,-0.546C0.139,-0.543 0.137,-0.539 0.137,-0.536ZM0.137,-0.536L0.136,-0.581L0.188,-0.603L0.778,-0.628C0.779,-0.619 0.781,-0.61 0.783,-0.601C0.786,-0.591 0.788,-0.583 0.791,-0.576C0.698,-0.571 0.617,-0.568 0.55,-0.565C0.483,-0.561 0.426,-0.559 0.38,-0.556C0.334,-0.554 0.296,-0.552 0.268,-0.55C0.239,-0.549 0.216,-0.547 0.199,-0.546C0.181,-0.545 0.169,-0.543 0.16,-0.541C0.15,-0.54 0.143,-0.538 0.137,-0.536Z" style="fill:rgb(242,242,242);fill-rule:nonzero;"/>
                    </g>
                    <g transform="matrix(41.666667,0,0,41.666667,369.682563,289.383697)">
                        <path d="M0.466,-0.836L0.54,-0.819C0.527,-0.766 0.511,-0.715 0.493,-0.663C0.475,-0.612 0.455,-0.565 0.433,-0.52C0.411,-0.476 0.387,-0.437 0.361,-0.404C0.357,-0.408 0.351,-0.413 0.344,-0.419C0.336,-0.426 0.328,-0.432 0.321,-0.438C0.313,-0.443 0.306,-0.448 0.3,-0.452C0.325,-0.483 0.348,-0.518 0.369,-0.559C0.39,-0.6 0.408,-0.644 0.424,-0.692C0.441,-0.739 0.455,-0.787 0.466,-0.836ZM0.449,-0.412L0.522,-0.397C0.512,-0.353 0.499,-0.31 0.484,-0.269C0.469,-0.227 0.452,-0.188 0.433,-0.151C0.415,-0.115 0.396,-0.083 0.375,-0.055C0.37,-0.059 0.364,-0.064 0.356,-0.069C0.348,-0.074 0.34,-0.079 0.332,-0.084C0.324,-0.089 0.317,-0.093 0.311,-0.096C0.342,-0.134 0.369,-0.181 0.393,-0.238C0.416,-0.294 0.435,-0.352 0.449,-0.412ZM0.456,-0.647L0.906,-0.647L0.906,-0.577L0.428,-0.577L0.456,-0.647ZM0.612,-0.619L0.686,-0.619L0.686,-0.011C0.686,0.01 0.683,0.026 0.678,0.038C0.673,0.05 0.663,0.059 0.65,0.066C0.636,0.072 0.618,0.076 0.597,0.078C0.575,0.08 0.548,0.081 0.517,0.081C0.515,0.07 0.511,0.058 0.507,0.043C0.502,0.028 0.496,0.015 0.49,0.005C0.514,0.006 0.536,0.006 0.555,0.006C0.575,0.006 0.588,0.006 0.595,0.005C0.601,0.005 0.605,0.004 0.608,0.002C0.611,0 0.612,-0.004 0.612,-0.011L0.612,-0.619ZM0.758,-0.397L0.826,-0.419C0.845,-0.384 0.863,-0.346 0.88,-0.306C0.897,-0.266 0.911,-0.227 0.924,-0.188C0.937,-0.148 0.946,-0.114 0.951,-0.083L0.879,-0.058C0.874,-0.089 0.866,-0.124 0.854,-0.163C0.841,-0.202 0.827,-0.242 0.81,-0.283C0.794,-0.324 0.777,-0.362 0.758,-0.397ZM0.884,-0.647L0.895,-0.647L0.908,-0.65L0.959,-0.639C0.952,-0.602 0.945,-0.564 0.937,-0.524C0.929,-0.485 0.922,-0.451 0.915,-0.424L0.851,-0.436C0.854,-0.453 0.858,-0.473 0.862,-0.496C0.866,-0.519 0.87,-0.542 0.874,-0.567C0.878,-0.591 0.881,-0.614 0.884,-0.636L0.884,-0.647ZM0.264,-0.836L0.335,-0.815C0.314,-0.758 0.288,-0.703 0.259,-0.647C0.23,-0.593 0.198,-0.541 0.164,-0.492C0.13,-0.443 0.095,-0.4 0.058,-0.363C0.056,-0.369 0.052,-0.377 0.048,-0.386C0.043,-0.395 0.037,-0.405 0.032,-0.415C0.026,-0.424 0.021,-0.432 0.016,-0.437C0.049,-0.47 0.081,-0.507 0.112,-0.55C0.143,-0.593 0.171,-0.638 0.197,-0.688C0.223,-0.737 0.245,-0.786 0.264,-0.836ZM0.16,-0.579L0.231,-0.65L0.232,-0.649L0.232,0.078L0.16,0.078L0.16,-0.579Z" style="fill:rgb(242,242,242);fill-rule:nonzero;"/>
                    </g>
                    <g transform="matrix(41.666667,0,0,41.666667,411.34923,289.383697)">
                        <path d="M0.286,-0.201L0.362,-0.174C0.342,-0.148 0.32,-0.122 0.294,-0.096C0.27,-0.069 0.244,-0.045 0.216,-0.022C0.19,0.002 0.163,0.022 0.137,0.04C0.132,0.035 0.126,0.03 0.118,0.024C0.11,0.017 0.102,0.011 0.093,0.005C0.085,-0.001 0.078,-0.006 0.072,-0.009C0.112,-0.033 0.151,-0.062 0.19,-0.097C0.228,-0.131 0.26,-0.166 0.286,-0.201ZM0.638,-0.171L0.697,-0.21C0.724,-0.191 0.752,-0.169 0.78,-0.145C0.809,-0.122 0.837,-0.098 0.864,-0.075C0.89,-0.052 0.911,-0.032 0.928,-0.013L0.864,0.032C0.848,0.013 0.827,-0.008 0.802,-0.032C0.777,-0.055 0.75,-0.079 0.721,-0.104C0.692,-0.129 0.665,-0.151 0.638,-0.171ZM0.471,-0.293L0.547,-0.293L0.547,-0.011C0.547,0.01 0.544,0.026 0.538,0.037C0.533,0.049 0.522,0.058 0.505,0.064C0.489,0.07 0.468,0.074 0.443,0.075C0.417,0.076 0.386,0.077 0.349,0.077C0.347,0.066 0.343,0.053 0.338,0.039C0.332,0.025 0.326,0.013 0.32,0.003C0.341,0.004 0.36,0.004 0.378,0.005C0.395,0.005 0.411,0.005 0.423,0.005C0.436,0.005 0.446,0.005 0.451,0.004C0.46,0.003 0.465,0.002 0.468,-0.001C0.47,-0.003 0.471,-0.007 0.471,-0.012L0.471,-0.293ZM0.714,-0.84L0.769,-0.78C0.726,-0.761 0.679,-0.744 0.627,-0.727C0.575,-0.71 0.52,-0.695 0.462,-0.68C0.404,-0.665 0.345,-0.652 0.285,-0.64C0.225,-0.627 0.166,-0.616 0.108,-0.605C0.107,-0.614 0.104,-0.625 0.099,-0.638C0.094,-0.65 0.09,-0.66 0.086,-0.668C0.143,-0.678 0.2,-0.69 0.259,-0.703C0.318,-0.716 0.375,-0.729 0.43,-0.744C0.486,-0.759 0.538,-0.774 0.587,-0.79C0.636,-0.806 0.678,-0.823 0.714,-0.84ZM0.129,-0.213C0.128,-0.218 0.127,-0.225 0.124,-0.234C0.121,-0.243 0.118,-0.252 0.116,-0.262C0.113,-0.271 0.11,-0.279 0.107,-0.285C0.123,-0.287 0.142,-0.292 0.165,-0.3C0.188,-0.309 0.214,-0.32 0.244,-0.334C0.261,-0.341 0.286,-0.353 0.319,-0.369C0.351,-0.386 0.389,-0.406 0.431,-0.429C0.473,-0.453 0.517,-0.479 0.562,-0.508C0.607,-0.536 0.651,-0.566 0.692,-0.597L0.749,-0.547C0.657,-0.482 0.563,-0.425 0.467,-0.376C0.371,-0.326 0.276,-0.283 0.183,-0.247L0.183,-0.244C0.183,-0.244 0.18,-0.243 0.175,-0.241C0.17,-0.24 0.163,-0.238 0.156,-0.235C0.149,-0.232 0.142,-0.228 0.137,-0.225C0.132,-0.221 0.129,-0.217 0.129,-0.213ZM0.129,-0.213L0.127,-0.27L0.179,-0.298L0.828,-0.342C0.827,-0.332 0.826,-0.321 0.826,-0.307C0.826,-0.295 0.826,-0.284 0.827,-0.277C0.727,-0.27 0.641,-0.263 0.569,-0.258C0.496,-0.253 0.435,-0.248 0.387,-0.244C0.337,-0.24 0.298,-0.237 0.267,-0.234C0.236,-0.231 0.211,-0.229 0.194,-0.227C0.176,-0.224 0.162,-0.222 0.153,-0.22C0.144,-0.218 0.136,-0.216 0.129,-0.213ZM0.183,-0.423C0.182,-0.428 0.181,-0.435 0.178,-0.445C0.176,-0.454 0.174,-0.463 0.171,-0.472C0.168,-0.48 0.165,-0.488 0.162,-0.495C0.173,-0.496 0.185,-0.5 0.199,-0.505C0.212,-0.51 0.226,-0.517 0.243,-0.526C0.254,-0.532 0.273,-0.543 0.299,-0.558C0.326,-0.574 0.355,-0.593 0.387,-0.616C0.419,-0.638 0.449,-0.661 0.477,-0.686L0.543,-0.644C0.494,-0.606 0.443,-0.571 0.39,-0.539C0.337,-0.508 0.285,-0.481 0.234,-0.459L0.234,-0.457C0.234,-0.457 0.232,-0.456 0.227,-0.454C0.222,-0.452 0.216,-0.449 0.209,-0.446C0.202,-0.442 0.196,-0.438 0.191,-0.434C0.186,-0.43 0.183,-0.426 0.183,-0.423ZM0.183,-0.423L0.183,-0.477L0.226,-0.5L0.601,-0.519C0.599,-0.51 0.597,-0.499 0.596,-0.487C0.594,-0.475 0.593,-0.465 0.593,-0.458C0.524,-0.454 0.467,-0.451 0.42,-0.448C0.374,-0.444 0.337,-0.442 0.307,-0.44C0.279,-0.437 0.256,-0.435 0.24,-0.433C0.224,-0.432 0.212,-0.43 0.204,-0.428C0.195,-0.427 0.188,-0.425 0.183,-0.423ZM0.664,-0.436L0.726,-0.467C0.751,-0.444 0.776,-0.419 0.802,-0.392C0.829,-0.365 0.853,-0.339 0.876,-0.314C0.898,-0.288 0.916,-0.265 0.93,-0.246L0.866,-0.207C0.853,-0.228 0.835,-0.251 0.812,-0.278C0.79,-0.305 0.766,-0.332 0.74,-0.359C0.713,-0.387 0.688,-0.413 0.664,-0.436Z" style="fill:rgb(242,242,242);fill-rule:nonzero;"/>
                    </g>
                    <g transform="matrix(41.666667,0,0,41.666667,453.015897,289.383697)">
                    </g>
                    <g transform="matrix(41.666667,0,0,41.666667,203.015897,347.717031)">
                        <path d="M0.088,-0L0.088,-0.076L0.252,-0.076L0.252,-0.623L0.121,-0.623L0.121,-0.681C0.154,-0.687 0.182,-0.694 0.207,-0.703C0.231,-0.712 0.253,-0.722 0.273,-0.733L0.343,-0.733L0.343,-0.076L0.49,-0.076L0.49,-0L0.088,-0Z" style="fill:rgb(242,242,242);fill-rule:nonzero;"/>
                    </g>
                    <g transform="matrix(41.666667,0,0,41.666667,226.140897,347.717031)">
                        <path d="M0.088,-0L0.088,-0.076L0.252,-0.076L0.252,-0.623L0.121,-0.623L0.121,-0.681C0.154,-0.687 0.182,-0.694 0.207,-0.703C0.231,-0.712 0.253,-0.722 0.273,-0.733L0.343,-0.733L0.343,-0.076L0.49,-0.076L0.49,-0L0.088,-0Z" style="fill:rgb(242,242,242);fill-rule:nonzero;"/>
                    </g>
                    <g transform="matrix(41.666667,0,0,41.666667,249.265897,347.717031)">
                        <path d="M0.044,-0L0.044,-0.054C0.121,-0.121 0.184,-0.183 0.234,-0.238C0.283,-0.293 0.32,-0.345 0.344,-0.393C0.368,-0.44 0.38,-0.485 0.38,-0.527C0.38,-0.555 0.375,-0.58 0.365,-0.602C0.356,-0.624 0.341,-0.641 0.321,-0.653C0.301,-0.666 0.276,-0.672 0.245,-0.672C0.215,-0.672 0.187,-0.664 0.162,-0.648C0.136,-0.632 0.113,-0.612 0.093,-0.587L0.04,-0.639C0.069,-0.672 0.101,-0.698 0.135,-0.717C0.169,-0.736 0.209,-0.746 0.256,-0.746C0.3,-0.746 0.338,-0.737 0.369,-0.72C0.401,-0.702 0.426,-0.677 0.444,-0.645C0.461,-0.612 0.47,-0.575 0.47,-0.531C0.47,-0.483 0.458,-0.433 0.433,-0.384C0.409,-0.334 0.376,-0.283 0.333,-0.231C0.29,-0.18 0.239,-0.127 0.182,-0.073C0.201,-0.073 0.222,-0.074 0.242,-0.076C0.264,-0.078 0.283,-0.079 0.302,-0.079L0.505,-0.079L0.505,-0L0.044,-0Z" style="fill:rgb(242,242,242);fill-rule:nonzero;"/>
                    </g>
                    <g transform="matrix(41.666667,0,0,41.666667,272.390897,347.717031)">
                        <path d="M0.278,0.013C0.232,0.013 0.192,-0.001 0.158,-0.029C0.123,-0.057 0.097,-0.099 0.078,-0.156C0.059,-0.213 0.05,-0.284 0.05,-0.369C0.05,-0.454 0.059,-0.525 0.078,-0.581C0.097,-0.636 0.123,-0.678 0.158,-0.705C0.192,-0.732 0.232,-0.746 0.278,-0.746C0.325,-0.746 0.365,-0.732 0.399,-0.705C0.433,-0.677 0.459,-0.635 0.478,-0.58C0.497,-0.525 0.506,-0.454 0.506,-0.369C0.506,-0.284 0.497,-0.213 0.478,-0.156C0.459,-0.099 0.433,-0.057 0.399,-0.029C0.365,-0.001 0.325,0.013 0.278,0.013ZM0.278,-0.061C0.306,-0.061 0.331,-0.072 0.352,-0.093C0.373,-0.114 0.389,-0.148 0.401,-0.194C0.412,-0.239 0.418,-0.298 0.418,-0.369C0.418,-0.44 0.412,-0.498 0.401,-0.543C0.389,-0.588 0.373,-0.622 0.352,-0.642C0.331,-0.663 0.306,-0.674 0.278,-0.674C0.251,-0.674 0.226,-0.663 0.205,-0.642C0.184,-0.622 0.167,-0.588 0.155,-0.543C0.144,-0.498 0.138,-0.44 0.138,-0.369C0.138,-0.298 0.144,-0.239 0.155,-0.194C0.167,-0.148 0.184,-0.114 0.205,-0.093C0.226,-0.072 0.251,-0.061 0.278,-0.061Z" style="fill:rgb(242,242,242);fill-rule:nonzero;"/>
                    </g>
                    <g transform="matrix(41.666667,0,0,41.666667,295.515897,347.717031)">
                        <path d="M0.278,0.013C0.232,0.013 0.192,-0.001 0.158,-0.029C0.123,-0.057 0.097,-0.099 0.078,-0.156C0.059,-0.213 0.05,-0.284 0.05,-0.369C0.05,-0.454 0.059,-0.525 0.078,-0.581C0.097,-0.636 0.123,-0.678 0.158,-0.705C0.192,-0.732 0.232,-0.746 0.278,-0.746C0.325,-0.746 0.365,-0.732 0.399,-0.705C0.433,-0.677 0.459,-0.635 0.478,-0.58C0.497,-0.525 0.506,-0.454 0.506,-0.369C0.506,-0.284 0.497,-0.213 0.478,-0.156C0.459,-0.099 0.433,-0.057 0.399,-0.029C0.365,-0.001 0.325,0.013 0.278,0.013ZM0.278,-0.061C0.306,-0.061 0.331,-0.072 0.352,-0.093C0.373,-0.114 0.389,-0.148 0.401,-0.194C0.412,-0.239 0.418,-0.298 0.418,-0.369C0.418,-0.44 0.412,-0.498 0.401,-0.543C0.389,-0.588 0.373,-0.622 0.352,-0.642C0.331,-0.663 0.306,-0.674 0.278,-0.674C0.251,-0.674 0.226,-0.663 0.205,-0.642C0.184,-0.622 0.167,-0.588 0.155,-0.543C0.144,-0.498 0.138,-0.44 0.138,-0.369C0.138,-0.298 0.144,-0.239 0.155,-0.194C0.167,-0.148 0.184,-0.114 0.205,-0.093C0.226,-0.072 0.251,-0.061 0.278,-0.061Z" style="fill:rgb(242,242,242);fill-rule:nonzero;"/>
                    </g>
                    <g transform="matrix(41.666667,0,0,41.666667,318.640897,347.717031)">
                        <path d="M0.088,-0L0.088,-0.076L0.252,-0.076L0.252,-0.623L0.121,-0.623L0.121,-0.681C0.154,-0.687 0.182,-0.694 0.207,-0.703C0.231,-0.712 0.253,-0.722 0.273,-0.733L0.343,-0.733L0.343,-0.076L0.49,-0.076L0.49,-0L0.088,-0Z" style="fill:rgb(242,242,242);fill-rule:nonzero;"/>
                    </g>
                    <g transform="matrix(41.666667,0,0,41.666667,341.765897,347.717031)">
                        <path d="M0.044,-0L0.044,-0.054C0.121,-0.121 0.184,-0.183 0.234,-0.238C0.283,-0.293 0.32,-0.345 0.344,-0.393C0.368,-0.44 0.38,-0.485 0.38,-0.527C0.38,-0.555 0.375,-0.58 0.365,-0.602C0.356,-0.624 0.341,-0.641 0.321,-0.653C0.301,-0.666 0.276,-0.672 0.245,-0.672C0.215,-0.672 0.187,-0.664 0.162,-0.648C0.136,-0.632 0.113,-0.612 0.093,-0.587L0.04,-0.639C0.069,-0.672 0.101,-0.698 0.135,-0.717C0.169,-0.736 0.209,-0.746 0.256,-0.746C0.3,-0.746 0.338,-0.737 0.369,-0.72C0.401,-0.702 0.426,-0.677 0.444,-0.645C0.461,-0.612 0.47,-0.575 0.47,-0.531C0.47,-0.483 0.458,-0.433 0.433,-0.384C0.409,-0.334 0.376,-0.283 0.333,-0.231C0.29,-0.18 0.239,-0.127 0.182,-0.073C0.201,-0.073 0.222,-0.074 0.242,-0.076C0.264,-0.078 0.283,-0.079 0.302,-0.079L0.505,-0.079L0.505,-0L0.044,-0Z" style="fill:rgb(242,242,242);fill-rule:nonzero;"/>
                    </g>
                    <g transform="matrix(41.666667,0,0,41.666667,364.890897,347.717031)">
                        <path d="M0.263,0.013C0.225,0.013 0.192,0.008 0.163,-0.001C0.134,-0.01 0.108,-0.023 0.086,-0.038C0.064,-0.053 0.045,-0.07 0.029,-0.088L0.076,-0.147C0.097,-0.125 0.122,-0.105 0.151,-0.088C0.18,-0.071 0.216,-0.063 0.257,-0.063C0.286,-0.063 0.312,-0.069 0.335,-0.08C0.357,-0.091 0.374,-0.106 0.387,-0.127C0.4,-0.147 0.406,-0.171 0.406,-0.199C0.406,-0.228 0.399,-0.254 0.385,-0.276C0.37,-0.298 0.346,-0.315 0.313,-0.328C0.28,-0.34 0.235,-0.346 0.178,-0.346L0.178,-0.416C0.229,-0.416 0.269,-0.422 0.298,-0.434C0.327,-0.447 0.349,-0.464 0.361,-0.485C0.374,-0.506 0.381,-0.53 0.381,-0.556C0.381,-0.591 0.37,-0.619 0.348,-0.64C0.326,-0.662 0.296,-0.672 0.257,-0.672C0.228,-0.672 0.2,-0.665 0.175,-0.652C0.149,-0.639 0.126,-0.622 0.105,-0.601L0.056,-0.659C0.084,-0.684 0.115,-0.705 0.147,-0.722C0.18,-0.738 0.218,-0.746 0.26,-0.746C0.301,-0.746 0.338,-0.739 0.37,-0.725C0.403,-0.71 0.428,-0.689 0.447,-0.662C0.465,-0.635 0.474,-0.602 0.474,-0.563C0.474,-0.518 0.462,-0.481 0.438,-0.452C0.414,-0.423 0.383,-0.401 0.344,-0.387L0.344,-0.382C0.373,-0.375 0.399,-0.364 0.422,-0.347C0.445,-0.33 0.464,-0.309 0.478,-0.284C0.492,-0.259 0.499,-0.229 0.499,-0.196C0.499,-0.153 0.488,-0.115 0.467,-0.084C0.446,-0.053 0.417,-0.029 0.382,-0.012C0.347,0.005 0.307,0.013 0.263,0.013Z" style="fill:rgb(242,242,242);fill-rule:nonzero;"/>
                    </g>
                    <g transform="matrix(41.666667,0,0,41.666667,388.015897,347.717031)">
                        <path d="M0.34,-0L0.34,-0.5C0.34,-0.518 0.341,-0.54 0.342,-0.566C0.343,-0.592 0.344,-0.614 0.345,-0.633L0.341,-0.633C0.332,-0.616 0.322,-0.598 0.312,-0.58C0.303,-0.561 0.293,-0.543 0.282,-0.525L0.115,-0.275L0.524,-0.275L0.524,-0.202L0.02,-0.202L0.02,-0.262L0.325,-0.733L0.426,-0.733L0.426,-0L0.34,-0Z" style="fill:rgb(242,242,242);fill-rule:nonzero;"/>
                    </g>
                    <g transform="matrix(41.666667,0,0,41.666667,411.140897,347.717031)">
                    </g>
                    <g transform="matrix(41.666667,0,0,41.666667,203.015897,406.050364)">
                        <path d="M0.088,-0L0.088,-0.076L0.252,-0.076L0.252,-0.623L0.121,-0.623L0.121,-0.681C0.154,-0.687 0.182,-0.694 0.207,-0.703C0.231,-0.712 0.253,-0.722 0.273,-0.733L0.343,-0.733L0.343,-0.076L0.49,-0.076L0.49,-0L0.088,-0Z" style="fill:rgb(242,242,242);fill-rule:nonzero;"/>
                    </g>
                    <g transform="matrix(41.666667,0,0,41.666667,226.140897,406.050364)">
                        <path d="M0.235,0.013C0.195,0.013 0.161,0.006 0.132,-0.009C0.102,-0.023 0.078,-0.041 0.058,-0.062L0.108,-0.119C0.124,-0.102 0.143,-0.088 0.165,-0.078C0.186,-0.068 0.209,-0.063 0.232,-0.063C0.257,-0.063 0.28,-0.069 0.302,-0.08C0.324,-0.091 0.343,-0.11 0.36,-0.137C0.378,-0.163 0.391,-0.197 0.401,-0.24C0.41,-0.283 0.415,-0.335 0.415,-0.398C0.415,-0.458 0.409,-0.509 0.397,-0.55C0.384,-0.591 0.366,-0.622 0.342,-0.643C0.318,-0.664 0.289,-0.675 0.255,-0.675C0.232,-0.675 0.211,-0.668 0.192,-0.654C0.173,-0.64 0.158,-0.621 0.147,-0.596C0.136,-0.571 0.13,-0.542 0.13,-0.508C0.13,-0.475 0.135,-0.447 0.144,-0.422C0.154,-0.398 0.169,-0.379 0.189,-0.366C0.208,-0.353 0.232,-0.346 0.261,-0.346C0.286,-0.346 0.311,-0.354 0.339,-0.369C0.365,-0.385 0.391,-0.411 0.416,-0.447L0.42,-0.374C0.405,-0.355 0.389,-0.339 0.369,-0.324C0.351,-0.309 0.331,-0.298 0.309,-0.29C0.289,-0.282 0.267,-0.278 0.246,-0.278C0.205,-0.278 0.17,-0.287 0.14,-0.304C0.109,-0.321 0.086,-0.347 0.069,-0.382C0.052,-0.416 0.044,-0.458 0.044,-0.508C0.044,-0.556 0.054,-0.598 0.073,-0.634C0.092,-0.669 0.118,-0.697 0.149,-0.717C0.181,-0.736 0.216,-0.746 0.254,-0.746C0.289,-0.746 0.322,-0.739 0.352,-0.725C0.382,-0.71 0.408,-0.689 0.43,-0.659C0.452,-0.63 0.469,-0.594 0.482,-0.551C0.495,-0.508 0.501,-0.457 0.501,-0.398C0.501,-0.324 0.494,-0.261 0.479,-0.208C0.464,-0.156 0.444,-0.114 0.419,-0.081C0.394,-0.048 0.365,-0.024 0.334,-0.009C0.302,0.006 0.269,0.013 0.235,0.013Z" style="fill:rgb(242,242,242);fill-rule:nonzero;"/>
                    </g>
                    <g transform="matrix(41.666667,0,0,41.666667,249.265897,406.050364)">
                        <path d="M0.235,0.013C0.195,0.013 0.161,0.006 0.132,-0.009C0.102,-0.023 0.078,-0.041 0.058,-0.062L0.108,-0.119C0.124,-0.102 0.143,-0.088 0.165,-0.078C0.186,-0.068 0.209,-0.063 0.232,-0.063C0.257,-0.063 0.28,-0.069 0.302,-0.08C0.324,-0.091 0.343,-0.11 0.36,-0.137C0.378,-0.163 0.391,-0.197 0.401,-0.24C0.41,-0.283 0.415,-0.335 0.415,-0.398C0.415,-0.458 0.409,-0.509 0.397,-0.55C0.384,-0.591 0.366,-0.622 0.342,-0.643C0.318,-0.664 0.289,-0.675 0.255,-0.675C0.232,-0.675 0.211,-0.668 0.192,-0.654C0.173,-0.64 0.158,-0.621 0.147,-0.596C0.136,-0.571 0.13,-0.542 0.13,-0.508C0.13,-0.475 0.135,-0.447 0.144,-0.422C0.154,-0.398 0.169,-0.379 0.189,-0.366C0.208,-0.353 0.232,-0.346 0.261,-0.346C0.286,-0.346 0.311,-0.354 0.339,-0.369C0.365,-0.385 0.391,-0.411 0.416,-0.447L0.42,-0.374C0.405,-0.355 0.389,-0.339 0.369,-0.324C0.351,-0.309 0.331,-0.298 0.309,-0.29C0.289,-0.282 0.267,-0.278 0.246,-0.278C0.205,-0.278 0.17,-0.287 0.14,-0.304C0.109,-0.321 0.086,-0.347 0.069,-0.382C0.052,-0.416 0.044,-0.458 0.044,-0.508C0.044,-0.556 0.054,-0.598 0.073,-0.634C0.092,-0.669 0.118,-0.697 0.149,-0.717C0.181,-0.736 0.216,-0.746 0.254,-0.746C0.289,-0.746 0.322,-0.739 0.352,-0.725C0.382,-0.71 0.408,-0.689 0.43,-0.659C0.452,-0.63 0.469,-0.594 0.482,-0.551C0.495,-0.508 0.501,-0.457 0.501,-0.398C0.501,-0.324 0.494,-0.261 0.479,-0.208C0.464,-0.156 0.444,-0.114 0.419,-0.081C0.394,-0.048 0.365,-0.024 0.334,-0.009C0.302,0.006 0.269,0.013 0.235,0.013Z" style="fill:rgb(242,242,242);fill-rule:nonzero;"/>
                    </g>
                    <g transform="matrix(41.666667,0,0,41.666667,272.390897,406.050364)">
                        <rect x="0.046" y="-0.315" width="0.257" height="0.07" style="fill:rgb(242,242,242);fill-rule:nonzero;"/>
                    </g>
                    <g transform="matrix(41.666667,0,0,41.666667,286.84923,406.050364)">
                        <path d="M0.235,0.013C0.195,0.013 0.161,0.006 0.132,-0.009C0.102,-0.023 0.078,-0.041 0.058,-0.062L0.108,-0.119C0.124,-0.102 0.143,-0.088 0.165,-0.078C0.186,-0.068 0.209,-0.063 0.232,-0.063C0.257,-0.063 0.28,-0.069 0.302,-0.08C0.324,-0.091 0.343,-0.11 0.36,-0.137C0.378,-0.163 0.391,-0.197 0.401,-0.24C0.41,-0.283 0.415,-0.335 0.415,-0.398C0.415,-0.458 0.409,-0.509 0.397,-0.55C0.384,-0.591 0.366,-0.622 0.342,-0.643C0.318,-0.664 0.289,-0.675 0.255,-0.675C0.232,-0.675 0.211,-0.668 0.192,-0.654C0.173,-0.64 0.158,-0.621 0.147,-0.596C0.136,-0.571 0.13,-0.542 0.13,-0.508C0.13,-0.475 0.135,-0.447 0.144,-0.422C0.154,-0.398 0.169,-0.379 0.189,-0.366C0.208,-0.353 0.232,-0.346 0.261,-0.346C0.286,-0.346 0.311,-0.354 0.339,-0.369C0.365,-0.385 0.391,-0.411 0.416,-0.447L0.42,-0.374C0.405,-0.355 0.389,-0.339 0.369,-0.324C0.351,-0.309 0.331,-0.298 0.309,-0.29C0.289,-0.282 0.267,-0.278 0.246,-0.278C0.205,-0.278 0.17,-0.287 0.14,-0.304C0.109,-0.321 0.086,-0.347 0.069,-0.382C0.052,-0.416 0.044,-0.458 0.044,-0.508C0.044,-0.556 0.054,-0.598 0.073,-0.634C0.092,-0.669 0.118,-0.697 0.149,-0.717C0.181,-0.736 0.216,-0.746 0.254,-0.746C0.289,-0.746 0.322,-0.739 0.352,-0.725C0.382,-0.71 0.408,-0.689 0.43,-0.659C0.452,-0.63 0.469,-0.594 0.482,-0.551C0.495,-0.508 0.501,-0.457 0.501,-0.398C0.501,-0.324 0.494,-0.261 0.479,-0.208C0.464,-0.156 0.444,-0.114 0.419,-0.081C0.394,-0.048 0.365,-0.024 0.334,-0.009C0.302,0.006 0.269,0.013 0.235,0.013Z" style="fill:rgb(242,242,242);fill-rule:nonzero;"/>
                    </g>
                    <g transform="matrix(41.666667,0,0,41.666667,309.97423,406.050364)">
                    </g>
                    <g transform="matrix(41.666667,0,0,41.666667,319.307563,406.050364)">
                        <path d="M0.063,-0.685L0.939,-0.685L0.939,-0.613L0.063,-0.613L0.063,-0.685ZM0.373,-0.368L0.9,-0.368L0.9,-0.298L0.373,-0.298L0.373,-0.368ZM0.333,-0.014L0.938,-0.014L0.938,0.056L0.333,0.056L0.333,-0.014ZM0.598,-0.561L0.673,-0.561L0.673,0.024L0.598,0.024L0.598,-0.561ZM0.391,-0.84L0.469,-0.821C0.446,-0.745 0.416,-0.67 0.381,-0.595C0.345,-0.52 0.302,-0.45 0.252,-0.386C0.202,-0.321 0.144,-0.264 0.077,-0.217C0.074,-0.224 0.071,-0.231 0.066,-0.24C0.061,-0.248 0.057,-0.256 0.052,-0.265C0.047,-0.273 0.042,-0.28 0.038,-0.286C0.083,-0.317 0.124,-0.354 0.162,-0.397C0.199,-0.439 0.232,-0.484 0.261,-0.533C0.29,-0.583 0.316,-0.633 0.338,-0.685C0.359,-0.737 0.377,-0.789 0.391,-0.84ZM0.193,-0.428L0.268,-0.428L0.268,0.076L0.193,0.076L0.193,-0.428Z" style="fill:rgb(242,242,242);fill-rule:nonzero;"/>
                    </g>
                    <g transform="matrix(41.666667,0,0,41.666667,360.97423,406.050364)">
                        <path d="M0.053,-0.18L0.948,-0.18L0.948,-0.116L0.053,-0.116L0.053,-0.18ZM0.239,-0.356L0.712,-0.356L0.712,-0.299L0.239,-0.299L0.239,-0.356ZM0.473,-0.223L0.546,-0.223L0.546,-0C0.546,0.019 0.543,0.034 0.538,0.044C0.533,0.054 0.522,0.062 0.506,0.068C0.491,0.073 0.47,0.075 0.444,0.076C0.417,0.077 0.384,0.077 0.344,0.077C0.342,0.068 0.339,0.057 0.334,0.045C0.329,0.034 0.323,0.023 0.318,0.014C0.339,0.015 0.358,0.015 0.377,0.015C0.396,0.016 0.412,0.016 0.425,0.015C0.438,0.015 0.448,0.015 0.453,0.015C0.461,0.015 0.466,0.014 0.469,0.011C0.472,0.008 0.473,0.004 0.473,-0.002L0.473,-0.223ZM0.694,-0.356L0.712,-0.356L0.728,-0.36L0.772,-0.321C0.749,-0.303 0.722,-0.286 0.693,-0.269C0.664,-0.252 0.633,-0.236 0.602,-0.222C0.571,-0.207 0.54,-0.194 0.51,-0.183C0.505,-0.19 0.499,-0.197 0.492,-0.205C0.485,-0.212 0.478,-0.218 0.473,-0.223C0.5,-0.232 0.527,-0.244 0.554,-0.257C0.582,-0.27 0.608,-0.285 0.633,-0.299C0.658,-0.315 0.678,-0.329 0.694,-0.342L0.694,-0.356ZM0.075,-0.482L0.929,-0.482L0.929,-0.299L0.854,-0.299L0.854,-0.424L0.147,-0.424L0.147,-0.299L0.075,-0.299L0.075,-0.482ZM0.801,-0.802L0.873,-0.802C0.871,-0.764 0.869,-0.724 0.866,-0.68C0.863,-0.638 0.86,-0.596 0.857,-0.555C0.854,-0.514 0.85,-0.479 0.846,-0.45L0.774,-0.45C0.779,-0.48 0.783,-0.515 0.786,-0.556C0.789,-0.598 0.792,-0.639 0.795,-0.682C0.798,-0.725 0.8,-0.765 0.801,-0.802ZM0.639,-0.802L0.831,-0.802L0.831,-0.75L0.639,-0.75L0.639,-0.802ZM0.33,-0.831L0.364,-0.785C0.335,-0.774 0.301,-0.764 0.264,-0.757C0.227,-0.75 0.193,-0.744 0.163,-0.739L0.135,-0.782C0.155,-0.785 0.177,-0.79 0.201,-0.795C0.224,-0.801 0.248,-0.807 0.271,-0.814C0.294,-0.821 0.313,-0.826 0.33,-0.831ZM0.175,-0.696L0.357,-0.696L0.357,-0.644L0.175,-0.644L0.175,-0.696ZM0.18,-0.589L0.362,-0.589L0.362,-0.538L0.18,-0.538L0.18,-0.589ZM0.644,-0.696L0.824,-0.696L0.824,-0.644L0.644,-0.644L0.644,-0.696ZM0.639,-0.589L0.816,-0.589L0.816,-0.538L0.639,-0.538L0.639,-0.589ZM0.548,-0.831L0.601,-0.816C0.578,-0.785 0.55,-0.756 0.515,-0.729C0.481,-0.701 0.447,-0.678 0.414,-0.66C0.409,-0.665 0.403,-0.671 0.394,-0.678C0.385,-0.686 0.377,-0.692 0.371,-0.696C0.405,-0.713 0.438,-0.734 0.471,-0.757C0.503,-0.78 0.529,-0.805 0.548,-0.831ZM0.389,-0.785L0.427,-0.819C0.449,-0.809 0.472,-0.797 0.495,-0.784C0.519,-0.771 0.541,-0.758 0.562,-0.745C0.584,-0.731 0.601,-0.718 0.615,-0.706L0.576,-0.669C0.563,-0.681 0.546,-0.694 0.525,-0.708C0.504,-0.722 0.482,-0.736 0.459,-0.75C0.435,-0.763 0.412,-0.775 0.389,-0.785ZM0.551,-0.662L0.604,-0.646C0.58,-0.614 0.55,-0.584 0.514,-0.554C0.478,-0.525 0.442,-0.501 0.406,-0.482C0.401,-0.487 0.395,-0.494 0.386,-0.503C0.377,-0.511 0.37,-0.517 0.364,-0.522C0.399,-0.539 0.434,-0.56 0.469,-0.585C0.503,-0.609 0.53,-0.635 0.551,-0.662ZM0.386,-0.618L0.424,-0.65C0.447,-0.639 0.47,-0.627 0.495,-0.613C0.52,-0.599 0.543,-0.584 0.565,-0.57C0.586,-0.554 0.604,-0.54 0.618,-0.527L0.578,-0.49C0.565,-0.503 0.547,-0.518 0.526,-0.533C0.505,-0.548 0.482,-0.564 0.458,-0.579C0.433,-0.594 0.409,-0.607 0.386,-0.618ZM0.135,-0.782L0.208,-0.763L0.227,-0.452L0.157,-0.452L0.135,-0.782Z" style="fill:rgb(242,242,242);fill-rule:nonzero;"/>
                    </g>
                    <g transform="matrix(41.666667,0,0,41.666667,402.640897,406.050364)">
                        <path d="M0.5,-0.31C0.479,-0.31 0.46,-0.318 0.445,-0.333C0.429,-0.347 0.421,-0.366 0.421,-0.389C0.421,-0.412 0.429,-0.43 0.445,-0.445C0.46,-0.46 0.479,-0.467 0.5,-0.467C0.521,-0.467 0.54,-0.46 0.555,-0.445C0.571,-0.43 0.579,-0.412 0.579,-0.389C0.579,-0.366 0.571,-0.347 0.555,-0.333C0.54,-0.318 0.521,-0.31 0.5,-0.31Z" style="fill:rgb(242,242,242);fill-rule:nonzero;"/>
                    </g>
                    <g transform="matrix(41.666667,0,0,41.666667,444.307563,406.050364)">
                        <path d="M0.201,-0.23L0.801,-0.23L0.801,-0.181L0.201,-0.181L0.201,-0.23ZM0.203,-0.347L0.839,-0.347L0.839,-0.068L0.203,-0.068L0.203,-0.122L0.765,-0.122L0.765,-0.293L0.203,-0.293L0.203,-0.347ZM0.461,-0.4L0.533,-0.4L0.533,-0.038C0.533,-0.02 0.538,-0.008 0.547,-0.002C0.557,0.004 0.577,0.007 0.608,0.007L0.83,0.007C0.847,0.007 0.86,0.004 0.869,-0.002C0.878,-0.008 0.884,-0.019 0.888,-0.036C0.892,-0.052 0.895,-0.076 0.896,-0.109C0.905,-0.104 0.915,-0.098 0.927,-0.093C0.94,-0.089 0.951,-0.085 0.961,-0.082C0.958,-0.043 0.952,-0.013 0.945,0.009C0.937,0.031 0.924,0.046 0.907,0.054C0.89,0.063 0.865,0.067 0.834,0.067L0.604,0.067C0.567,0.067 0.538,0.064 0.517,0.059C0.496,0.053 0.482,0.042 0.474,0.027C0.465,0.012 0.461,-0.01 0.461,-0.038L0.461,-0.4ZM0.165,-0.347L0.237,-0.347L0.237,-0.011L0.165,-0.011L0.165,-0.347ZM0.12,-0.8L0.879,-0.8L0.879,-0.746L0.12,-0.746L0.12,-0.8ZM0.46,-0.786L0.533,-0.786L0.533,-0.426L0.46,-0.426L0.46,-0.786ZM0.07,-0.683L0.931,-0.683L0.931,-0.472L0.862,-0.472L0.862,-0.629L0.137,-0.629L0.137,-0.472L0.07,-0.472L0.07,-0.683ZM0.16,-0.449C0.193,-0.453 0.232,-0.458 0.275,-0.465C0.318,-0.471 0.362,-0.477 0.409,-0.484L0.412,-0.432C0.371,-0.425 0.33,-0.417 0.289,-0.411C0.249,-0.404 0.212,-0.397 0.177,-0.391L0.16,-0.449ZM0.185,-0.562L0.208,-0.606C0.231,-0.603 0.255,-0.598 0.28,-0.592C0.305,-0.585 0.33,-0.579 0.353,-0.572C0.376,-0.565 0.396,-0.559 0.411,-0.552L0.388,-0.503C0.373,-0.51 0.354,-0.518 0.331,-0.525C0.308,-0.532 0.283,-0.539 0.258,-0.546C0.232,-0.553 0.208,-0.558 0.185,-0.562ZM0.785,-0.609L0.819,-0.563C0.799,-0.555 0.777,-0.547 0.753,-0.54C0.729,-0.533 0.705,-0.527 0.68,-0.521C0.656,-0.516 0.634,-0.511 0.614,-0.508L0.586,-0.548C0.606,-0.552 0.628,-0.558 0.652,-0.565C0.677,-0.572 0.701,-0.58 0.725,-0.588C0.748,-0.596 0.768,-0.603 0.785,-0.609ZM0.577,-0.439L0.599,-0.487C0.625,-0.484 0.653,-0.48 0.683,-0.475C0.714,-0.469 0.743,-0.463 0.77,-0.456C0.798,-0.449 0.822,-0.443 0.841,-0.436L0.82,-0.383C0.801,-0.39 0.778,-0.397 0.75,-0.404C0.722,-0.411 0.693,-0.417 0.663,-0.424C0.633,-0.431 0.604,-0.436 0.577,-0.439Z" style="fill:rgb(242,242,242);fill-rule:nonzero;"/>
                    </g>
                    <g transform="matrix(41.666667,0,0,41.666667,485.97423,406.050364)">
                        <path d="M0.051,-0.395L0.953,-0.395L0.953,-0.32L0.051,-0.32L0.051,-0.395ZM0.151,-0.773L0.803,-0.773L0.803,-0.698L0.151,-0.698L0.151,-0.773ZM0.779,-0.773L0.799,-0.773L0.816,-0.777L0.873,-0.734C0.842,-0.703 0.806,-0.673 0.766,-0.642C0.725,-0.612 0.683,-0.584 0.64,-0.556C0.597,-0.529 0.555,-0.506 0.514,-0.486C0.511,-0.492 0.506,-0.498 0.5,-0.505C0.494,-0.512 0.488,-0.518 0.482,-0.524C0.476,-0.531 0.47,-0.536 0.465,-0.54C0.502,-0.557 0.541,-0.578 0.582,-0.603C0.622,-0.628 0.659,-0.653 0.695,-0.68C0.729,-0.707 0.758,-0.732 0.779,-0.755L0.779,-0.773ZM0.465,-0.54L0.543,-0.54L0.543,-0.019C0.543,0.006 0.539,0.025 0.532,0.038C0.525,0.051 0.511,0.06 0.491,0.066C0.472,0.072 0.447,0.076 0.414,0.077C0.381,0.079 0.341,0.08 0.293,0.08C0.292,0.073 0.289,0.064 0.285,0.055C0.281,0.046 0.277,0.036 0.273,0.027C0.269,0.018 0.265,0.009 0.261,0.002C0.288,0.003 0.313,0.004 0.338,0.005C0.362,0.005 0.383,0.005 0.401,0.005C0.418,0.004 0.431,0.004 0.438,0.004C0.448,0.003 0.455,0.001 0.459,-0.002C0.463,-0.005 0.465,-0.011 0.465,-0.02L0.465,-0.54Z" style="fill:rgb(242,242,242);fill-rule:nonzero;"/>
                    </g>
                    <g transform="matrix(41.666667,0,0,41.666667,527.640897,406.050364)">
                        <path d="M0.123,-0.743L0.879,-0.743L0.879,-0.667L0.123,-0.667L0.123,-0.743ZM0.187,-0.416L0.801,-0.416L0.801,-0.341L0.187,-0.341L0.187,-0.416ZM0.065,-0.069L0.934,-0.069L0.934,0.007L0.065,0.007L0.065,-0.069Z" style="fill:rgb(242,242,242);fill-rule:nonzero;"/>
                    </g>
                    <g transform="matrix(41.666667,0,0,41.666667,569.307563,406.050364)">
                        <path d="M0.462,-0.748L0.541,-0.748L0.541,0.08L0.462,0.08L0.462,-0.748ZM0.126,-0.777L0.877,-0.777L0.877,-0.181L0.797,-0.181L0.797,-0.705L0.203,-0.705L0.203,-0.178L0.126,-0.178L0.126,-0.777ZM0.164,-0.539L0.833,-0.539L0.833,-0.467L0.164,-0.467L0.164,-0.539ZM0.164,-0.305L0.832,-0.305L0.832,-0.233L0.164,-0.233L0.164,-0.305Z" style="fill:rgb(242,242,242);fill-rule:nonzero;"/>
                    </g>
                    <g transform="matrix(41.666667,0,0,41.666667,610.97423,406.050364)">
                    </g>
                </g>
                <g transform="matrix(1,0,0,1,14.943963,2.367039)">
                    <g transform="matrix(41.666667,0,0,41.666667,814.815468,56.158075)">
                        <path d="M0.05,-0.184L0.95,-0.184L0.95,-0.107L0.05,-0.107L0.05,-0.184ZM0.24,-0.358L0.698,-0.358L0.698,-0.289L0.24,-0.289L0.24,-0.358ZM0.464,-0.221L0.557,-0.221L0.557,-0.01C0.557,0.013 0.554,0.03 0.547,0.042C0.541,0.054 0.529,0.063 0.511,0.07C0.493,0.076 0.47,0.08 0.444,0.081C0.417,0.082 0.383,0.082 0.344,0.082C0.342,0.07 0.338,0.057 0.332,0.042C0.326,0.027 0.32,0.014 0.313,0.002C0.332,0.003 0.351,0.003 0.368,0.004C0.386,0.004 0.402,0.004 0.416,0.004L0.443,0.004C0.451,0.004 0.456,0.003 0.46,0.001C0.463,-0.002 0.464,-0.006 0.464,-0.013L0.464,-0.221ZM0.674,-0.358L0.697,-0.358L0.717,-0.363L0.771,-0.314C0.747,-0.296 0.72,-0.278 0.691,-0.261C0.662,-0.244 0.632,-0.227 0.601,-0.212C0.57,-0.197 0.539,-0.183 0.508,-0.171C0.503,-0.179 0.495,-0.188 0.486,-0.198C0.478,-0.207 0.47,-0.215 0.464,-0.221C0.489,-0.23 0.515,-0.242 0.542,-0.256C0.569,-0.27 0.594,-0.285 0.617,-0.299C0.64,-0.315 0.659,-0.328 0.674,-0.341L0.674,-0.358ZM0.07,-0.485L0.934,-0.485L0.934,-0.292L0.84,-0.292L0.84,-0.415L0.16,-0.415L0.16,-0.292L0.07,-0.292L0.07,-0.485ZM0.789,-0.809L0.879,-0.809C0.877,-0.77 0.875,-0.728 0.872,-0.684C0.869,-0.64 0.866,-0.597 0.863,-0.556C0.86,-0.515 0.856,-0.479 0.853,-0.449L0.762,-0.449C0.766,-0.48 0.77,-0.517 0.773,-0.558C0.777,-0.599 0.78,-0.642 0.783,-0.686C0.786,-0.73 0.788,-0.771 0.789,-0.809ZM0.637,-0.809L0.826,-0.809L0.826,-0.747L0.637,-0.747L0.637,-0.809ZM0.327,-0.837L0.367,-0.781C0.337,-0.769 0.303,-0.759 0.265,-0.751C0.226,-0.743 0.192,-0.737 0.162,-0.732L0.129,-0.785C0.148,-0.789 0.17,-0.794 0.195,-0.799C0.219,-0.805 0.243,-0.811 0.266,-0.819C0.289,-0.826 0.31,-0.832 0.327,-0.837ZM0.176,-0.701L0.361,-0.701L0.361,-0.639L0.176,-0.639L0.176,-0.701ZM0.18,-0.593L0.364,-0.593L0.364,-0.532L0.18,-0.532L0.18,-0.593ZM0.643,-0.701L0.818,-0.701L0.818,-0.639L0.643,-0.639L0.643,-0.701ZM0.638,-0.593L0.811,-0.593L0.811,-0.532L0.638,-0.532L0.638,-0.593ZM0.544,-0.836L0.607,-0.818C0.585,-0.787 0.557,-0.758 0.522,-0.731C0.487,-0.704 0.453,-0.681 0.42,-0.663C0.415,-0.669 0.407,-0.676 0.396,-0.685C0.385,-0.695 0.376,-0.702 0.368,-0.707C0.403,-0.723 0.436,-0.742 0.468,-0.765C0.499,-0.787 0.525,-0.811 0.544,-0.836ZM0.388,-0.787L0.433,-0.826C0.454,-0.817 0.476,-0.805 0.499,-0.792C0.523,-0.779 0.544,-0.766 0.565,-0.753C0.586,-0.739 0.603,-0.726 0.616,-0.715L0.569,-0.671C0.556,-0.683 0.54,-0.696 0.52,-0.71C0.5,-0.724 0.478,-0.738 0.456,-0.752C0.432,-0.765 0.41,-0.777 0.388,-0.787ZM0.546,-0.668L0.609,-0.648C0.585,-0.615 0.555,-0.584 0.519,-0.555C0.483,-0.526 0.447,-0.502 0.41,-0.483C0.405,-0.49 0.398,-0.498 0.387,-0.508C0.376,-0.518 0.368,-0.526 0.361,-0.532C0.396,-0.548 0.431,-0.568 0.465,-0.592C0.498,-0.615 0.525,-0.641 0.546,-0.668ZM0.384,-0.618L0.429,-0.657C0.452,-0.646 0.475,-0.634 0.499,-0.62C0.523,-0.606 0.546,-0.592 0.568,-0.577C0.589,-0.562 0.607,-0.548 0.621,-0.535L0.572,-0.491C0.559,-0.504 0.542,-0.518 0.521,-0.533C0.501,-0.549 0.478,-0.564 0.454,-0.579C0.43,-0.594 0.407,-0.607 0.384,-0.618ZM0.129,-0.785L0.219,-0.762L0.238,-0.452L0.149,-0.452L0.129,-0.785Z" style="fill:rgb(59,59,59);fill-rule:nonzero;"/>
                    </g>
                    <g transform="matrix(41.666667,0,0,41.666667,860.648802,56.158075)">
                        <path d="M0.208,-0.655L0.902,-0.655L0.902,-0.563L0.208,-0.563L0.208,-0.655ZM0.165,-0.362L0.865,-0.362L0.865,-0.271L0.165,-0.271L0.165,-0.362ZM0.053,-0.039L0.951,-0.039L0.951,0.053L0.053,0.053L0.053,-0.039ZM0.453,-0.844L0.551,-0.844L0.551,0.007L0.453,0.007L0.453,-0.844ZM0.225,-0.83L0.323,-0.808C0.308,-0.757 0.291,-0.706 0.271,-0.656C0.25,-0.607 0.228,-0.561 0.204,-0.518C0.18,-0.476 0.155,-0.439 0.129,-0.407C0.122,-0.412 0.114,-0.419 0.104,-0.425C0.093,-0.432 0.083,-0.44 0.072,-0.447C0.061,-0.454 0.052,-0.459 0.043,-0.463C0.07,-0.492 0.095,-0.526 0.118,-0.566C0.141,-0.604 0.161,-0.647 0.179,-0.692C0.198,-0.737 0.213,-0.783 0.225,-0.83Z" style="fill:rgb(59,59,59);fill-rule:nonzero;"/>
                    </g>
                    <g transform="matrix(41.666667,0,0,41.666667,902.315468,56.158075)">
                    </g>
                </g>
            </g>
        </g>
    </g>
</svg>
